<svg xmlns="http://www.w3.org/2000/svg" xmlns:xlink="http://www.w3.org/1999/xlink" version="1.1" width="3599.99988" height="1373.99996" xml:space="preserve" style=""><rect id="backgroundrect" width="100%" height="100%" x="0" y="0" fill="none" stroke="none"/>
<desc>Created with Fabric.js 5.3.0</desc>
<defs>
</defs>

<g class="currentLayer" style=""><title>Layer 1</title><g id="507Z5iuZZBu8TPPQ3wWks" class="selected" fill="#ffffff" fill-opacity="1">
<g style="" stroke-width="0" id="svg_1" fill="#ffffff" fill-opacity="1">
		<g id="KtXoBtVn1t4Okslw9OCyA" stroke-width="0" fill="#ffffff" fill-opacity="1">
<path style="stroke: none; stroke-width: 1; stroke-dasharray: none; stroke-linecap: butt; stroke-dashoffset: 0; stroke-linejoin: miter; stroke-miterlimit: 4; fill-rule: nonzero; opacity: 1;" d="M653.5174630692426,7.062036858131705 C652.743784105276,9.944132831237766 649.133282273432,12.826228804344282 645.0069944656102,13.874263703655288 C622.5703045105794,19.37644692504 600.6494005315262,44.005267058856134 595.2336477837601,69.42011336715586 C585.1758212521946,117.3677100106488 602.7125444354372,163.21923685551928 638.043883789911,181.2978388686397 C643.459636537677,184.17993484174576 648.6174962974542,187.58604826450755 649.6490682494097,189.1581006134743 C650.6806402013651,190.73015296244148 680.0804408320952,192.0401965865808 724.9538207421568,192.56421403623608 C778.8534552318285,193.35024021071968 799.2270012829485,194.39827511003114 801.0322521988705,196.75635363348147 C802.8375031147925,198.8524234321044 803.869075066748,281.64718047769884 804.3848610427257,437.0183543006028 C804.9006470187035,603.3938945662758 805.9322189706588,675.4462938939291 807.9953628745698,679.1144160415188 C809.5427208025029,681.9965120146248 812.895329646358,688.8087388601484 815.4742595262467,694.3109220815331 C822.1794772139571,708.459393222236 829.658373865634,715.7956375174153 846.6793110728987,724.9659428863893 C860.3476394363083,732.5641959063964 863.1844623041858,733.0882133560522 888.7158681150829,733.35022208088 C908.5736281902252,733.35022208088 918.115668745813,732.0401784567407 923.7893144815679,729.1580824836346 C928.1734952773785,726.8000039601839 932.815569061178,724.9659428863893 934.3629269891112,724.9659428863893 C939.5207867488884,724.9659428863893 962.2153696919081,702.4331925511956 966.5995504877187,693.2628871822217 C980.0099858631394,664.9659449008159 979.2363068991729,681.4724945649691 980.0099858631394,425.751979133006 C980.2678788511283,295.271634168746 981.5573437910725,187.3240395396797 982.588915743028,186.01399591554036 C983.8783806829723,184.96596101622936 1015.857111193591,183.65591739209003 1053.5094874399645,183.1318999424343 C1107.6670149176252,182.60788249277857 1124.1721661489123,181.55984759346757 1130.6194908486336,178.67775162036105 C1135.0036716444442,176.58168182173858 1139.9036384162328,174.74762074794398 1141.4509963441658,174.74762074794398 C1142.998354272099,174.74762074794398 1144.2878192120434,173.43757712380466 1144.2878192120434,172.12753349966533 C1144.2878192120434,170.5554811506986 1146.0930701279653,169.50744625138714 1148.414107019865,169.50744625138714 C1158.2140405634418,169.50744625138714 1182.9717674103722,136.23233819825282 1182.9717674103722,123.13190195686093 C1182.9717674103722,119.987797258927 1184.2612323503165,116.58168383616521 1185.5506972902608,115.79565766168162 C1187.098055218194,115.00963148719848 1188.1296271701494,104.79129121891265 1188.1296271701494,93.52491605131627 C1188.1296271701494,82.25854088371943 1187.098055218194,72.04020061543406 1185.5506972902608,71.25417444095046 C1184.2612323503165,70.46814826646687 1182.9717674103722,67.06203484370508 1182.9717674103722,63.91793014577115 C1182.7138744223835,47.411380481617925 1152.282501839698,17.542385851244944 1131.3931698126003,13.350246254000012 C1127.2668820047786,12.302211354688552 1123.1405941969567,9.420115381582491 1122.36691523299,6.80002813330384 C1120.819557305057,2.083871086403178 1113.5985536413689,1.8218623615753131 887.6842961631276,1.8218623615753131 C658.9332158170087,1.8218623615753131 654.8069280091869,1.8218623615753131 653.5174630692426,7.062036858131705 z" stroke-linecap="round" stroke-width="0" id="svg_2" fill="#ffffff" fill-opacity="1"/>
</g>
		<g id="-lZseVPOqSpwwWKUY2dnc" stroke-width="0" fill="#ffffff" fill-opacity="1">
<path style="stroke: none; stroke-width: 1; stroke-dasharray: none; stroke-linecap: butt; stroke-dashoffset: 0; stroke-linejoin: miter; stroke-miterlimit: 4; fill-rule: nonzero; opacity: 1;" d="M1480.838117083687,13.874354843021592 C1450.6646374889904,17.280468265783384 1426.1648036300485,22.52064276234023 1414.301726182561,27.498808534068758 C1410.1754383747393,29.332869607863813 1405.275471602951,30.64291323200314 1403.21232769904,30.64291323200314 C1401.1491837951291,30.64291323200314 1397.5386819632852,31.690948131314144 1394.9597520833966,33.263000480281335 C1386.965069455742,37.717148802354586 1366.333630416633,46.36343672167277 1363.7547005367444,46.36343672167277 C1362.2073426088114,46.36343672167277 1360.917877668867,47.41147162098423 1360.917877668867,48.7215152451231 C1360.917877668867,50.031558869262426 1357.5652688250118,51.86561994305748 1353.1810880292012,52.91365484236849 C1349.0548002213795,53.96168974167995 1345.4442983895353,55.53374209064714 1345.4442983895353,56.84378571478601 C1345.4442983895353,58.153829338925334 1343.1232614976357,59.987890412719935 1340.0285456417694,60.77391658720353 C1335.128578869981,62.34596893617072 1301.860383419418,84.3547018217082 1299.0235605515406,88.02282396929786 C1298.249881587574,88.80885014378146 1290.2551989599194,96.14509443896077 1280.9710513923203,104.00535618379581 C1271.6869038247214,111.8656179286304 1262.1448632691336,120.7739145727769 1259.823826377234,123.65601054588296 C1240.4818522780693,146.4507696059045 1233.0029556263923,156.14509242453414 1227.0714169026487,165.31539779350805 C1223.4609150708045,171.3415984645485 1219.8504132389605,176.5817729611049 1219.076734274994,177.36779913558848 C1214.6925534791833,181.297930008006 1199.9926531638182,209.5948722894118 1189.419040656275,233.6996749735722 C1184.2611808964978,245.75207631565218 1175.2349263168878,273.7870098722301 1175.2349263168878,278.24115819430335 C1175.2349263168878,280.3372279929263 1174.2033543649322,284.26735886534334 1172.913889424988,286.887446113622 C1163.629741857389,304.4420306770867 1160.5350260015227,394.0490145682047 1168.2718156411886,432.82630584272374 C1173.4296754009658,459.8132044999902 1177.5559632087875,475.2717192648324 1181.940144004598,485.75206825794567 C1184.003287908509,490.2062165800189 1185.550645836442,495.18438235174744 1185.550645836442,496.75643470071464 C1185.550645836442,498.32848704968137 1186.5822177883977,501.73460047244316 1187.871682728342,504.3546877207218 C1189.1611476682863,506.71276624417214 1194.8347934040412,518.2411501365968 1200.2505461518072,529.7695340290215 C1205.6662988995733,541.2979179214458 1210.8241586593504,551.2542494649033 1211.597837623317,552.0402756393869 C1212.3715165872836,552.8263018138705 1216.2399114071166,558.5904937600826 1219.8504132389605,565.1407118807783 C1223.4609150708045,571.6909300014745 1228.6187748305817,579.2891830214812 1231.1977047104704,582.4332877194156 C1233.776634590359,585.3153836925217 1242.2871031939915,595.2717152359792 1250.023892833657,604.4420206049531 C1267.8185090048885,625.6647273160074 1269.1079739448328,626.9747709401468 1284.8394462121532,639.8131984567103 C1292.0604498758414,645.5773904029229 1299.2814535395294,651.6035910739629 1300.8288114674626,653.4376521477575 C1306.7603501912063,658.9398353691422 1339.7706526537804,680.4245508050244 1342.349582533669,680.4245508050244 C1343.8969404616023,680.4245508050244 1345.4442983895353,681.4725857043354 1345.960084365513,682.5206206036469 C1346.9916563174686,685.1407078519251 1378.4546008521095,701.3852487912509 1382.5808886599311,701.3852487912509 C1384.1282465878644,701.3852487912509 1388.2545343956863,702.9573011402176 1391.8650362275303,704.7913622140127 C1399.8597188551848,708.9835018112576 1421.2648368582602,716.0577373816091 1433.1279143057477,718.4158159050598 C1438.0278810775362,719.2018420795434 1444.4752057772578,721.035903153338 1447.3120286451351,722.3459467774774 C1452.727781392901,724.7040253009277 1509.9800247264282,730.7302259719677 1527.2588549216816,730.7302259719677 C1548.6639729247572,730.4682172471398 1597.4057476546516,724.7040253009277 1611.0740760180613,721.035903153338 C1633.510765973092,714.4856850326423 1650.273810192368,708.9835018112576 1659.300064771978,705.0533709388405 C1663.6842455677888,702.9573011402176 1668.3263193515882,701.3852487912509 1669.6157842915325,701.3852487912509 C1674.257858075332,701.3852487912509 1717.3259870694717,677.5424548319179 1736.667961168636,664.1800098656986 C1773.804551439032,638.2411461077436 1822.8042191569155,584.2673487932102 1842.1461932560799,548.1101447669694 C1845.4988020999351,541.5599266462737 1851.17244783569,531.0795776531604 1854.525056679545,524.5293595324647 C1858.1355585113893,517.979141411769 1861.4881673552443,509.33285349245034 1862.5197393071999,504.87870517037754 C1863.5513112591552,500.68656557313216 1865.3565621750772,496.49442597588677 1866.6460271150215,495.7083998014032 C1867.9354920549658,494.66036490209217 1868.9670640069214,492.0402776538135 1868.9670640069214,489.6821991303632 C1868.9670640069214,487.32412060691286 1870.5144219348545,482.3459548351839 1872.3196728507764,478.6778326875942 C1874.3828167546874,474.7477018151767 1876.703853646587,466.1014138958585 1877.4775326105537,459.28918705033493 C1878.5091045625093,452.2149514799835 1880.57224846642,444.87870718480417 1881.8617134063643,443.306654835837 C1885.7301082261972,438.59049778893586 1887.7932521301082,350.29355752195715 1884.6985362742419,322.7826414150345 C1881.6038204183756,293.17565550948984 1877.219639622565,272.47696624809123 1872.5775658387654,263.30666087911686 C1870.5144219348545,259.6385387315272 1868.9670640069214,254.66037295979868 1868.9670640069214,252.3022944363479 C1868.9670640069214,249.94421591289756 1867.9354920549658,246.01408504048004 1866.3881341270328,243.39399779220184 C1863.2934182711665,237.36779712116186 1853.4934847275897,214.57303806114032 1853.4934847275897,213.0009857121736 C1853.4934847275897,211.4289333632064 1830.0252228206034,171.3415984645485 1827.7041859287037,169.50753739075344 C1826.930506964737,168.72151121626985 1823.0621121449042,162.95731927005772 1818.9358243370825,156.66910987418987 C1806.2990679256284,137.01845551210226 1759.104651123667,91.69094611688752 1733.8311383007588,75.18439645273429 C1720.9364889013157,66.53810853341565 1709.0734114538282,58.677846788581064 1707.7839465138838,57.629811889269604 C1703.1418727300843,54.22369846650781 1683.0262196669532,44.52937564787817 1658.7842787960003,34.573044104420205 C1637.637053780914,25.664747460274157 1602.30571442644,17.54247699061125 1568.5217329998993,13.612346118193727 C1531.3851427295035,9.15819779612093 1518.2326003420717,9.420206520948796 1480.838117083687,13.874354843021592 zM1581.6742753873311,195.97041859836463 C1591.474208930908,199.11452329629856 1600.500463510518,202.52063671906035 1601.7899284504624,203.83068034319922 C1603.3372863783954,205.14072396733854 1605.916216258284,206.18875886665 1607.979360162195,206.18875886665 C1615.9740427898496,206.18875886665 1647.6948803124794,228.72150920184322 1665.7473894716995,247.0621199397915 C1701.5945148021513,283.4813326908602 1721.7101678652823,336.9311125557374 1717.8417730454494,385.14071792405866 C1717.0680940814827,396.14508436682763 1715.2628431655608,406.10141591028514 1713.9733782256164,406.8874420847683 C1712.6839132856721,407.6734682592519 1711.6523413337168,411.34159040684153 1711.6523413337168,415.27172127925905 C1711.3944483457278,419.2018521516766 1709.3313044418169,427.0621138965116 1706.4944815739395,432.82630584272374 C1703.657658706062,438.59049778893586 1701.5945148021513,444.0926810103206 1701.3366218141623,445.14071590963204 C1701.0787288261733,452.2149514799835 1681.47886173902,478.41582396276635 1661.6211016638779,498.32848704968137 C1644.0843784806355,515.8830716131461 1632.9949799971143,524.5293595324647 1618.5529726697382,531.6035951028161 C1607.979360162195,537.1057783242004 1597.6636406426405,541.5599266462737 1595.3426037507409,541.5599266462737 C1593.27945984683,541.5599266462737 1590.1847439909636,542.869970270413 1588.6373860630304,544.4420226193797 C1584.5110982552087,548.6341622166251 1555.1112976244785,553.0883105386984 1529.8377848015703,553.0883105386984 C1504.564271978662,553.0883105386984 1475.164471347932,548.6341622166251 1471.0381835401101,544.4420226193797 C1469.490825612177,542.869970270413 1466.1382167683219,541.5599266462737 1463.5592868884332,541.5599266462737 C1456.854069200723,541.5599266462737 1427.7121615579817,525.3153857069483 1408.628080446806,510.64289711658967 C1390.0597853116083,496.75643470071464 1370.9757042004326,471.86560584207064 1358.3389477889784,445.6647333592873 C1353.6968740051789,435.7084018158298 1348.5390142454016,425.22805282271656 1346.9916563174686,422.3459568496105 C1345.4442983895353,419.46386087650444 1343.8969404616023,399.28918906476156 1343.3811544856246,377.2804561792236 C1342.349582533669,342.17128705229425 1342.8653685096467,335.8830776564264 1347.7653352814352,321.7346065157235 C1352.9231950412122,306.800109200537 1355.7600179090898,300.2498910798413 1361.4336636448447,290.0315508115559 C1362.4652355968,287.935481012933 1365.0441654766887,283.21932396603233 1366.8494163926107,279.5512018184427 C1374.8440990202655,263.044652154289 1406.3070435549064,231.60360517494928 1427.196375582004,218.7651776583857 C1446.5383496811685,207.236793765961 1465.6224307923442,198.32849712181496 1471.553969516088,198.32849712181496 C1473.8750064079877,198.32849712181496 1476.969722263854,197.2804622225035 1478.5170801917873,195.97041859836463 C1482.3854750116202,192.0402877259471 1491.4117295912301,191.25426155146351 1528.806212849615,190.73024410180778 C1557.948120492356,190.46823537697992 1566.7164820839773,191.51627027629138 1581.6742753873311,195.97041859836463 z" stroke-linecap="round" stroke-width="0" id="svg_3" fill="#ffffff" fill-opacity="1"/>
</g>
		<g id="JTCwZjqu_4nhcdXpkaFom" stroke-width="0" fill="#ffffff" fill-opacity="1">
<path style="stroke: none; stroke-width: 1; stroke-dasharray: none; stroke-linecap: butt; stroke-dashoffset: 0; stroke-linejoin: miter; stroke-miterlimit: 4; fill-rule: nonzero; opacity: 1;" d="M2477.594585798423,12.826249145789006 C2468.310438230824,14.136292769927877 2455.6736818193694,17.804414917517533 2449.226357119648,20.686510890623595 C2431.9475269243944,29.332798809942233 2411.5739808732746,50.031488071340846 2404.0950842215975,67.0620551851498 C2400.4845823897535,75.18432565481271 2396.3582945819317,83.8306135741309 2395.0688296419876,86.18869209758168 C2393.5214717140543,88.80877934585988 2392.489899762099,93.00091894310526 2392.489899762099,95.88301491621132 C2392.489899762099,98.50310216448952 2390.684648846177,107.14939008380816 2388.363611954277,114.74764310381534 C2379.8531433506446,145.40266390867146 2377.0163204827672,155.35899545212897 2375.468962554834,164.26729209627547 C2374.695283590868,169.245457868004 2373.1479256629345,174.48563236456084 2372.116353710979,176.05768471352758 C2371.3426747470126,177.3677283376669 2369.2795308431014,184.44196390801835 2367.7321729151686,191.77820820319766 C2365.9269219992466,198.8524437735491 2362.83220614338,211.95288001494055 2360.2532762634914,220.59916793425919 C2357.9322393715915,229.24545585357737 2354.8375235157255,242.08388337014094 2353.548058575781,249.42012766532025 C2352.000700647848,256.4943632356717 2349.937556743937,263.56859880602315 2348.648091803993,265.14065115499034 C2347.616519852037,266.4506947791292 2346.0691619241043,273.0009128998254 2345.037589972149,279.28912229569323 C2344.006018020193,285.5773316915611 2342.4586600922603,292.1275498122568 2341.4270881403045,293.699602161224 C2339.8797302123717,296.3196894095022 2337.042907344494,306.8000384026154 2330.5955826447725,336.40702430816054 C2327.758759776895,349.2454518247241 2321.0535420891847,360.7738357171488 2316.4114683053854,360.7738357171488 C2313.05885946153,360.7738357171488 2309.9641436056636,352.91357397231377 2309.9641436056636,343.481259878512 C2309.9641436056636,340.3371551805776 2308.1588926897416,334.3109545095376 2306.095748785831,330.3808236371201 C2304.0326048819197,326.1886840398747 2302.2273539659977,319.11444846952327 2302.2273539659977,314.3982914226226 C2302.2273539659977,309.94414310054935 2301.1957820140424,305.4899947784761 2299.9063170740983,304.4419598791651 C2298.358959146165,303.6559337046815 2296.553708230243,297.6297330336415 2295.5221362782877,290.81750618811793 C2294.4905643263323,284.26728806742176 2292.1695274344324,275.6210001481036 2290.3642765185105,271.9528780005139 C2288.3011326145993,268.28475585292426 2286.7537746866665,261.9965464570564 2286.7537746866665,258.32842430946675 C2286.7537746866665,254.39829343704923 2284.9485237707445,247.84807531635352 2282.8853798668333,243.917944443936 C2280.8222359629226,239.7258048466906 2279.0169850470006,232.65156927633916 2279.0169850470006,228.1974209542659 C2279.0169850470006,224.00528135702098 2277.9854130950453,219.28912431011986 2276.6959481551007,217.71707196115267 C2275.4064832151566,216.4070283370138 2273.0854463232567,209.33279276666235 2271.5380883953235,202.2585571963109 C2270.2486234553794,194.9223129011316 2267.153907599513,182.6079028342233 2264.8328707076134,174.7476410893887 C2259.417117959847,156.6690390762683 2253.7434722240923,135.44633236521395 2249.6171844162704,118.41576525140499 C2247.8119335003485,111.07952095622568 2244.975110632471,101.90921558725131 2243.427752704538,97.97908471483379 C2241.622501788616,93.78694511758886 2240.3330368486713,88.28476189620415 2240.3330368486713,85.40266592309808 C2240.3330368486713,82.52056994999202 2239.301464896716,78.32843035274664 2238.011999956772,75.70834310446844 C2236.4646420288386,73.35026458101765 2232.8541401969946,65.49000283618307 2229.5015313531394,58.41576726583162 C2223.8278856173843,46.101357198923324 2201.6490886503425,22.782580689246515 2195.45965693861,22.782580689246515 C2193.9122990106766,22.782580689246515 2189.2702252268773,20.94851961545146 2184.8860444310667,18.59044109200113 C2173.2808599715677,12.302231696133276 2126.6022291455843,12.040222971305411 2112.676007794186,18.328432367173264 C2083.7919931394335,31.4288686085647 2069.0920928240685,43.48126995064513 2054.9079784846813,64.96598538652734 C2048.9764397609374,73.87428203067338 2044.3343659771378,81.99655250033629 2044.3343659771378,83.04458739964775 C2044.3343659771378,84.35463102378662 2043.0449010371935,88.54677062103201 2041.2396501212716,92.7389102182774 C2038.402827253394,99.81314578862884 2034.2765394455723,115.79567800312634 2028.8607866978064,139.90048068728674 C2027.571321757862,145.9266813583272 2025.508177853951,153.00091692867863 2023.9608199260178,155.62100417695683 C2022.6713549860735,158.24109142523503 2020.3503180941739,166.88737934455366 2018.8029601662406,174.7476410893887 C2011.5819565025527,209.85681021631808 2010.2924915626083,215.6210021625302 2008.2293476586974,217.97908068598053 C2007.197775706742,219.28912431011986 2005.6504177788088,225.83934243081558 2004.6188458268534,232.3895605515113 C2003.587273874898,238.67776994737915 2001.7820229589759,245.22798806807532 2000.7504510070205,246.80004041704206 C1999.4609860670762,248.11008404118138 1997.9136281391432,255.18431961153283 1996.8820561871876,261.9965464570564 C1996.108377223221,269.07078202740786 1994.561019295288,276.1450175977593 1993.5294473433323,277.71706994672604 C1991.4663034394216,280.86117464465997 1986.566336667633,300.5118290067476 1982.9558348357891,320.1624833688347 C1981.6663698958448,326.1886840398747 1979.8611189799228,332.476893435743 1978.8295470279675,334.3109545095376 C1977.5400820880232,336.1450155833327 1974.9611522081345,344.79130350265086 1973.1559012922125,353.69960014679737 C1971.0927573883016,362.6078967909434 1967.7401485444464,376.49435920681844 1965.9348976285244,384.3546209516535 C1963.8717537246134,392.21488269648853 1961.034930856736,404.00527531374064 1959.4875729288028,410.55549343443636 C1957.9402150008698,417.10571155513253 1955.61917810897,424.70396457513925 1954.3297131690256,427.58606054824577 C1953.0402482290815,430.46815652135183 1951.2349973131593,438.066409541359 1950.203425361204,444.6166276620547 C1949.4297463972373,450.9048370579226 1947.6244954813153,457.4550551786183 1946.59292352936,459.0271075275855 C1945.3034585894156,460.33715115172436 1943.7561006614824,467.4113867220758 1942.724528709527,474.48562229242725 C1941.9508497455604,481.5598578627787 1940.1455988296384,488.63409343313015 1938.856133889694,490.20614578209734 C1937.5666689497498,491.7781981310641 1935.7614180338278,498.59042497658766 1934.9877390698612,505.40265182211124 C1933.9561671179058,512.2148786676353 1932.1509162019838,518.5030880635031 1931.1193442500282,519.2891142379863 C1929.829879310084,519.813131687642 1928.282521382151,526.6253585331656 1927.2509494301953,534.2236115531728 C1926.21937747824,541.5598558483521 1924.6720195503067,549.1581088683592 1923.6404475983513,550.4681524924986 C1921.8351966824293,553.3502484656046 1917.9668018625964,569.3327806801021 1912.5510491148304,595.2716444380576 C1911.0036911868972,602.345880008409 1908.6826542949975,609.4201155787605 1907.3931893550532,610.7301592028994 C1906.103724415109,612.3022115518665 1905.0721524631533,616.7563598739398 1905.0721524631533,620.6864907463573 C1905.0721524631533,624.8786303436023 1903.2669015472313,632.2148746387816 1901.2037576433206,637.4550491353384 C1898.8827207514207,643.2192410815505 1898.366934775443,648.7214243029352 1899.6563997153874,652.3895464505249 C1900.6879716673427,655.5336511484588 1902.493222583265,664.4419477926049 1903.5247945352203,672.3022095374399 C1907.3931893550532,702.1712041678124 1938.5982409017051,735.1843034961194 1969.5453994603683,741.9965303416429 C1973.6716872681902,743.0445652409544 1977.7979750760119,744.878626314749 1978.5716540399785,746.1886699388883 C1979.6032259919339,747.4987135630276 1989.4031595355107,748.5467484623387 2000.4925580190315,748.5467484623387 C2011.5819565025527,748.5467484623387 2021.3818900461292,747.4987135630276 2022.4134619980848,746.1886699388883 C2023.1871409620514,744.878626314749 2027.313428769873,743.0445652409544 2031.6976095656837,741.9965303416429 C2053.360620556748,737.0183645699144 2087.6603879592662,707.935396114025 2097.718214490832,685.6646545036592 C2099.2655724187653,681.9965323560696 2101.328716322676,673.3502444367514 2102.1023952866426,666.0140001415721 C2103.133967238598,658.9397645712206 2104.93921815452,651.8655290008692 2106.2286830944645,650.5554853767298 C2107.7760410223973,648.9834330277631 2108.8076129743527,643.7432585312063 2108.8076129743527,638.7650927594773 C2109.065505962342,633.5249182629209 2110.612863890275,624.6166216187748 2112.676007794186,618.8524296725623 C2114.7391516980965,613.0882377263501 2116.5444026140185,605.2279759815151 2116.5444026140185,601.5598538339254 C2116.5444026140185,597.6297229615079 2118.0917605419518,588.7214263173619 2120.154904445863,581.9091994718383 C2125.3127642056397,563.56858873389 2129.4390520134616,545.4899867207696 2132.275874881339,525.8393323586824 C2133.823232809272,516.4070182648802 2136.144269701172,507.760730345562 2137.433734641116,506.4506867214227 C2138.7231995810607,504.87863437245596 2139.754771533016,500.16247732555485 2139.754771533016,495.7083290034816 C2139.754771533016,483.39391893657375 2150.0704910525706,452.47688940688977 2153.9388858724033,452.47688940688977 C2156.0020297763144,452.47688940688977 2158.323066668214,456.6690290041347 2159.354638620169,462.1712122255194 C2160.386210572125,467.67339544690367 2162.7072474640245,474.48562229242725 2164.5124983799465,477.3677182655333 C2166.5756422838576,480.24981423863983 2168.123000211791,485.7519974600241 2168.123000211791,489.6821283324416 C2168.123000211791,493.61225920485913 2169.1545721637463,497.2803813524488 2170.4440371036903,498.0664075269324 C2171.733502043635,499.1144424262434 2173.538752959557,504.35461692280023 2174.570324911512,510.3808175938402 C2175.6018968634676,516.1450095400523 2177.9229337553675,524.2672800097153 2179.986077659278,527.9354021573049 C2182.0492215631893,531.8655330297224 2183.596579491122,537.6297249759346 2183.596579491122,540.5118209490406 C2183.596579491122,543.655925646975 2185.401830407044,549.682126318015 2187.4649743109553,553.6122571904325 C2189.528118214866,557.8043967876779 2191.333369130788,564.3546149083736 2191.333369130788,568.2847457807911 C2191.333369130788,572.2148766532082 2192.3649410827434,575.8829988007978 2193.654406022688,576.6690249752814 C2194.943870962632,577.7170598745929 2196.749121878554,582.9572343711493 2197.78069383051,588.9834350421897 C2198.812265782465,594.7476269884019 2201.1333026743646,602.8698974580648 2203.1964465782758,606.5380196056544 C2205.2595904821865,610.468150478072 2206.8069484101197,616.4943511491119 2206.8069484101197,620.1624732967016 C2207.0648413981085,623.8305954442912 2208.6121993260417,629.5947873905034 2210.6753432299524,633.262909538093 C2212.7384871338636,636.9310316856827 2214.285845061797,642.9572323567227 2214.5437380497856,646.8873632291402 C2214.5437380497856,650.8174941015577 2215.575310001741,654.4856162491474 2216.864774941685,655.271642423631 C2218.1542398816296,656.319677322942 2219.9594907975516,661.8218605443267 2220.991062749507,667.8480612153667 C2224.85945756934,690.3808115505603 2248.3277194763264,724.7039545030061 2267.153907599513,734.6602860464636 C2285.7222027347107,744.878626314749 2300.9378890260537,748.2847397375108 2325.953508860973,748.5467484623387 C2339.8797302123717,748.5467484623387 2351.742807659859,747.4987135630276 2352.5164866238256,745.9266612140605 C2353.290165587792,744.3546088650933 2355.869095467681,743.3065739657823 2357.9322393715915,743.3065739657823 C2366.442707975224,743.3065739657823 2389.3951839062324,730.2061377243904 2400.7424753777423,718.939762556794 C2415.7002686810965,704.2672739664354 2425.2423092366844,689.070767926421 2427.563346128584,676.2323404098574 C2428.3370250925504,670.4681484636449 2430.1422760084724,664.7039565174327 2431.173847960428,663.3939128932934 C2432.2054199123836,661.8218605443267 2434.0106708283056,653.9615987994916 2434.784349792272,645.8393283298287 C2435.8159217442276,637.4550491353384 2437.6211726601496,630.1188048401591 2438.652744612105,629.3327786656755 C2439.942209552049,628.8087612160198 2441.4895674799823,621.9965343704962 2442.5211394319376,614.398281350489 C2443.5527113838934,606.8000283304823 2445.3579622998154,599.463784035303 2446.389534251771,597.8917316863358 C2447.678999191715,596.5816880621965 2449.226357119648,589.5074524918455 2450.2579290716035,582.433216921494 C2451.03160803557,575.3589813511426 2452.836858951492,568.2847457807911 2454.1263238914366,566.7126934318239 C2455.157895843392,565.1406410828567 2456.963146759314,557.54238806285 2457.9947187112693,549.9441350428428 C2459.0262906632247,542.0838732980078 2460.8315415791467,533.9616028283449 2461.8631135311025,531.6035243048946 C2463.1525784710466,528.9834370566164 2465.4736153629465,520.5991578621256 2467.0209732908793,512.7388961172906 C2473.468297990601,481.5598578627787 2475.0156559185343,474.48562229242725 2477.3366928104338,469.5074565206987 C2478.6261577503783,466.6253605475922 2480.4314086663003,459.8131337020686 2481.4629806182556,454.31095048068437 C2482.2366595822223,448.54675853447225 2484.557696474122,444.6166276620547 2486.620840378033,444.6166276620547 C2491.0050211738435,444.6166276620547 2497.9681318495427,458.2410813531019 2500.0312757534534,471.86553504414906 C2500.80495471742,477.6297269903612 2503.12599160932,485.22798001036836 2505.1891355132307,488.896102157958 C2506.9943864291527,492.56422430554767 2508.541744357086,499.37645115107125 2508.541744357086,503.8305994731445 C2508.541744357086,508.0227390703899 2509.5733163090413,512.7388961172906 2510.862781248986,514.3109484662577 C2512.410139176919,515.6209920903971 2514.47328308083,521.3851840366092 2516.020641008763,527.1493759828213 C2522.9837516844623,554.9223008145714 2524.7890026003843,561.4725189352671 2526.852146504295,565.6646585325125 C2528.1416114442395,568.0227370559633 2529.9468623601615,575.0969726263147 2530.720541324128,581.3851820221826 C2531.7521132760835,587.6733914180504 2533.2994712040168,593.9616008139183 2534.588936143961,595.2716444380576 C2535.620508095916,596.8436967870243 2537.425759011838,603.1319061828926 2538.4573309637935,609.1581068539326 C2539.4889029157493,615.1843075249726 2541.036260843682,620.9484994711852 2542.3257257836267,621.4725169208405 C2543.357297735582,622.2585430953241 2545.162548651504,628.284743766364 2546.1941206034594,635.0969706118881 C2547.225692555415,641.6471887325838 2549.5467294473146,650.293476651902 2551.3519803632366,653.9615987994916 C2553.415124267148,657.6297209470813 2554.9624821950806,664.4419477926049 2554.9624821950806,669.158104839506 C2554.9624821950806,673.6122531615792 2555.9940541470364,678.066401483652 2557.2835190869805,678.8524276581356 C2558.315091038936,679.6384538326192 2560.120341954858,683.5685847050368 2560.8940209188245,687.4987155774543 C2565.0203087266464,706.3633437650578 2602.67268497302,737.8043907443976 2626.656732855984,742.2585390664708 C2631.8145926157613,743.3065739657823 2637.7461313395047,745.1406350395769 2639.293489267438,746.4506786637162 C2642.646098111293,749.3327746368223 2649.6092087869924,748.5467484623387 2673.5932566699566,743.0445652409544 C2713.8245627962187,733.87425987198 2738.582289643149,698.2410732953954 2742.4506844629823,644.267275980862 C2743.2243634269485,634.5729531622324 2742.4506844629823,626.4506826925694 2740.903326535049,624.354612893947 C2739.3559686071158,622.5205518201519 2737.292824703205,615.1843075249726 2736.5191457392384,608.1100719546212 C2735.487573787283,601.0358363842697 2733.94021585935,593.9616008139183 2732.6507509194053,592.6515571897794 C2731.61917896745,591.0795048408122 2729.813928051528,584.5292867201165 2728.7823560995726,578.2410773242486 C2727.750784147617,571.6908592035529 2726.203426219684,565.1406410828567 2725.1718542677286,563.8305974587179 C2723.882389327784,562.2585451097507 2721.8192454238733,555.1843095393992 2720.27188749594,548.1100739690478 C2716.145599688118,527.9354021573049 2710.729846940352,506.71269544625056 2708.9245960244302,502.2585471241773 C2707.893024072475,500.16247732555485 2706.087773156553,493.0882417552034 2704.5404152286196,486.5380236345077 C2698.6088765048758,458.2410813531019 2695.2562676610205,445.66466256136573 2693.4510167450985,442.78256658825967 C2692.419444793143,441.21051423929293 2690.87208686521,434.1362786689415 2690.0984079012433,427.06204309859004 C2689.066835949288,420.24981625306646 2687.5194780213546,413.175580682715 2686.2300130814106,411.8655370585757 C2685.198441129455,410.29348470960895 2683.393190213533,403.7432665889128 2682.361618261578,397.4550571930449 C2681.330046309622,390.9048390723492 2679.7826883816892,384.3546209516535 2678.7511164297334,383.04457732751416 C2677.4616514897893,381.4725249785474 2675.3985075858786,374.398289408196 2673.8511496579454,367.32405383784453 C2668.951182886157,344.00527732816727 2664.3091091023575,325.66466659021944 2661.214393246491,318.06641357021226 C2659.409142330569,313.8742739729669 2658.119677390625,307.8480733019269 2658.119677390625,304.70396860399296 C2658.119677390625,301.29785518123117 2656.314426474703,294.2236196108797 2654.251282570792,289.24545383915074 C2652.188138666881,284.0052793425939 2650.382887750959,276.93104377224245 2650.382887750959,273.26292162465325 C2650.382887750959,269.856808201891 2648.577636835037,263.56859880602315 2646.514492931126,259.6384679336056 C2644.451349027215,255.4463283363607 2642.646098111293,248.37209276600925 2642.646098111293,243.65593571910813 C2642.646098111293,239.20178739703488 2641.614526159338,234.74763907496163 2640.3250612193933,233.69960417565062 C2639.0355962794492,232.91357800116702 2636.972452375538,225.83934243081558 2636.198773411572,217.97908068598053 C2635.167201459616,209.85681021631808 2633.361950543694,202.78257464596663 2632.07248560375,202.2585571963109 C2631.0409136517947,201.4725310218273 2629.2356627358727,195.18432162595946 2628.204090783917,188.37209478043587 C2627.4304118199507,181.5598679349123 2625.6251609040282,174.7476410893887 2624.593588952073,173.43759746524938 C2623.304124012129,171.8655451162822 2621.7567660841955,164.79130954593074 2620.72519413224,157.7170739755793 C2619.693622180285,150.38082968040044 2617.888371264363,143.306594110049 2616.856799312407,141.99655048590967 C2615.567334372463,140.42449813694247 2614.0199764445297,134.66030619073035 2612.9884044925743,128.89611424451823 C2612.2147255286077,123.13192229830565 2610.4094746126857,116.0576867279542 2609.1200096727416,113.17559075484814 C2607.830544732797,110.29349478174208 2605.509507840897,101.90921558725131 2604.220042900953,94.83498001689986 C2602.9305779610086,87.49873572172055 2600.093755093131,77.28039545343518 2598.0306111892205,71.51620350722305 C2593.64643039341,59.463802165142624 2573.014991354301,30.904851158909423 2568.6308105584903,30.642842434081558 C2567.083452630557,30.642842434081558 2563.988736774691,29.070790085114368 2562.183485858769,27.236729011319767 C2555.9940541470364,20.686510890623595 2541.036260843682,15.184327669239337 2522.2100727204956,12.564240420961141 C2501.5786336813867,9.420135723027215 2501.0628477054092,9.420135723027215 2477.594585798423,12.826249145789006 z" stroke-linecap="round" stroke-width="0" id="svg_4" fill="#ffffff" fill-opacity="1"/>
</g>
		<g id="eejXu-OIkMwLqXCbr89P9" stroke-width="0" fill="#ffffff" fill-opacity="1">
<path style="stroke: none; stroke-width: 1; stroke-dasharray: none; stroke-linecap: butt; stroke-dashoffset: 0; stroke-linejoin: miter; stroke-miterlimit: 4; fill-rule: nonzero; opacity: 1;" d="M3069.4588576157707,13.874354843021592 C3039.285378021074,17.280468265783384 3014.7855441621323,22.52064276234023 3002.9224667146445,27.498808534068758 C2998.796178906823,29.332869607863813 2993.8962121350346,30.64291323200314 2991.833068231124,30.64291323200314 C2989.7699243272127,30.64291323200314 2986.1594224953687,31.690948131314144 2983.58049261548,33.263000480281335 C2981.2594557235807,34.573044104420205 2973.522666083915,38.24116625200986 2966.3016624202264,41.38527094994424 C2953.407013020784,46.8874541713285 2937.417647765474,54.74771591616354 2927.359821233909,60.2498991375478 C2889.1916590115575,82.25863202308574 2837.6130614137855,131.25426356589014 2812.8553345668547,169.50753739075344 C2810.792190662944,172.65164208868737 2807.4395818190887,176.84378168593275 2805.8922238911555,178.93985148455522 C2804.0869729752335,180.77391255835028 2802.5396150473002,183.1319910818006 2802.5396150473002,184.18002598111207 C2802.5396150473002,185.22806088042353 2799.1870062034454,191.77827900111924 2794.802825407635,198.59050584664283 C2790.676537599813,205.66474141699427 2786.550249791991,214.31102933631246 2785.5186778400357,217.97915148390211 C2784.744998876069,221.64727363149177 2782.939747960147,224.52936960459783 2781.6502830202026,224.52936960459783 C2780.3608180802585,224.52936960459783 2779.329246128303,226.62543940322075 2779.329246128303,228.98351792667108 C2779.329246128303,231.60360517494928 2777.523995212381,237.105788396334 2775.46085130847,241.29792799357938 C2773.3977074045592,245.2280588659969 2771.5924564886373,249.94421591289756 2771.5924564886373,251.2542595370369 C2771.5924564886373,252.82631188600362 2770.045098560704,257.54246893290474 2767.9819546567933,261.996617254978 C2763.3398808729935,273.52500114740224 2758.955700077183,294.7477078584566 2755.860984221317,322.7826414150345 C2752.7662683654503,349.50753134747356 2754.8294122693615,438.59049778893586 2758.4399141012054,443.0446461110091 C2759.9872720291387,444.6166984599763 2761.7925229450607,452.2149514799835 2762.824094897016,459.8132044999902 C2763.8556668489714,467.4114575199974 2765.6609177648934,474.22368436552097 2766.6924897168487,475.00971054000456 C2767.9819546567933,475.79573671448816 2769.0135266087486,478.41582396276635 2769.0135266087486,480.7739024862167 C2769.2714195967374,483.13198100966747 2771.3345635006485,489.94420785519105 2774.171386368526,495.7083998014032 C2777.008209236403,501.47259174761575 2779.0713531403144,507.7608011434836 2779.329246128303,509.33285349245034 C2779.329246128303,511.1669145662454 2782.6818549721584,518.7651675862526 2786.80814277998,526.3634206062593 C2790.9344305878017,533.9616736262665 2796.3501833355676,544.4420226193797 2798.9291132154563,549.4201883911087 C2815.6921574347325,581.1232440952763 2868.8181129604377,640.8612333560218 2896.1547696872567,658.9398353691422 C2902.0863084110006,662.8699662415597 2907.5020611587665,666.5380883891494 2908.275740122733,667.3241145636325 C2912.144134942566,672.0402716105336 2966.5595554082156,701.3852487912509 2970.943736204026,701.3852487912509 C2972.2332011439703,701.3852487912509 2976.8752749277696,702.9573011402176 2981.2594557235807,705.0533709388405 C2991.833068231124,709.7695279857412 3004.211931654589,713.9616675829866 3021.7486548378315,718.9398333547156 C3036.4485551531966,723.1319729519605 3095.2481564146565,730.4682172471398 3113.300665573877,730.7302259719677 C3131.8689607090746,730.7302259719677 3188.0896320906463,724.7040253009277 3192.473812886457,722.3459467774774 C3194.794849778357,721.035903153338 3201.757960454056,718.9398333547156 3207.9473921657886,718.153807180232 C3214.1368238775212,717.1057722809205 3220.326255589254,715.5337199319538 3221.615720529198,714.4856850326423 C3223.163078457131,713.4376501333309 3228.0630452289197,711.6035890595363 3232.705119012719,710.5555541602248 C3237.3471927965184,709.5075192609133 3244.3103034722176,707.149440737463 3248.1786982920507,705.0533709388405 C3252.0470931118834,702.9573011402176 3256.431273907694,701.3852487912509 3257.9786318356273,701.3852487912509 C3262.104919643449,701.3852487912509 3293.56786417809,685.1407078519251 3294.5994361300454,682.5206206036469 C3295.1152221060233,681.4725857043354 3296.9204730219453,680.4245508050244 3298.7257239378673,680.4245508050244 C3301.5625468057447,680.4245508050244 3336.120207196252,657.1057742953471 3343.0833178719513,650.5555561746514 C3344.8885687878733,648.9835038256847 3353.1411444035166,641.6472595305054 3361.3937200191604,634.5730239601539 C3375.0620483825696,622.7826313429014 3381.76726607028,615.7083957725499 3404.7197420012885,587.4114534911441 C3408.072350845144,582.9573051690709 3412.1986386529657,578.2411481221702 3413.745996580899,576.4070870483752 C3415.035461520843,574.5730259745806 3416.3249264607875,572.7389649007855 3416.3249264607875,571.9529387263024 C3416.3249264607875,571.1669125518188 3419.677535304643,565.664729330434 3423.803823112464,559.3765199345662 C3435.4090075719632,541.5599266462737 3457.587804539005,495.97040852623104 3457.587804539005,489.15818168070746 C3457.587804539005,487.84813805656813 3458.6193764909603,484.44202463380634 3459.908841430905,481.82193738552814 C3463.003557286771,475.79573671448816 3467.3877380825816,458.24115215102347 3472.28770485437,432.82630584272374 C3480.024494494036,393.00097966889325 3476.6718856501807,306.0140830260534 3466.356166130626,282.95731524120447 C3464.2930222267155,278.5031669191312 3462.7456642987822,271.9529487984355 3462.7456642987822,268.28482665084584 C3462.7456642987822,264.6167045032562 3461.714092346827,260.68657363083867 3460.1667344188936,259.90054745635507 C3458.8772694789495,259.11452128187193 3457.587804539005,255.70840785911014 3457.587804539005,252.82631188600362 C3457.587804539005,249.94421591289756 3455.266767647105,242.60797161771825 3452.6878377672165,236.58177094667826 C3432.056398728108,191.51627027629138 3427.6722179322974,184.44203470593993 3405.2355279772664,155.35906625005055 C3398.530310289556,146.4507696059045 3391.0514136378793,136.49443806244653 3388.7303767459794,132.82631591485733 C3386.4093398540795,129.15819376726768 3373.7725834426255,116.84378370035938 3360.3621480672045,105.31539980793468 C3346.951712691784,93.78701591551044 3334.572849268319,83.04465819756933 3333.0254913403855,81.73461457343001 C3331.2202404244636,80.16256222446282 3325.2887017007197,75.97042262721789 3319.615055964965,72.5643092044561 C3313.94141022921,69.1581957816943 3308.7835504694326,65.49007363410465 3308.009871505466,64.44203873479319 C3307.2361925415,63.65601256030959 3304.1414766856333,62.083960211342855 3301.0467608297668,61.035925312031395 C3297.694151985912,59.987890412719935 3295.1152221060233,58.153829338925334 3295.1152221060233,56.84378571478601 C3295.1152221060233,55.53374209064714 3291.762613262168,53.96168974167995 3287.3784324663575,52.91365484236849 C3283.2521446585356,51.86561994305748 3279.6416428266916,50.031558869262426 3279.6416428266916,48.7215152451231 C3279.6416428266916,47.41147162098423 3278.352177886747,46.36343672167277 3276.8048199588143,46.36343672167277 C3273.7101041029478,46.36343672167277 3259.7838827515493,40.59924477546065 3247.9208053040616,34.311035379592795 C3243.79451749624,32.214965580969874 3238.8945507244516,30.64291323200314 3237.0892998085296,30.64291323200314 C3235.026155904619,30.64291323200314 3230.384082120819,29.332869607863813 3226.2577943129977,27.498808534068758 C3214.1368238775212,22.258634037512365 3189.6369900185796,17.280468265783384 3157.142473531983,13.612346118193727 C3120.0058832615873,9.15819779612093 3106.8533408741555,9.420206520948796 3069.4588576157707,13.874354843021592 zM3171.5844808593592,196.75644477284777 C3194.279063802379,204.09268906802708 3202.0158534420448,207.49880249078888 3219.0367906493093,217.71714275907425 C3234.510369928641,226.62543940322075 3276.546926970825,269.59487027498517 3282.7363586825577,282.1712890667209 C3291.24682728619,299.9878823550134 3297.694151985912,315.9704145695109 3297.694151985912,319.3765279922727 C3297.694151985912,321.47259779089563 3299.2415099138448,324.61670248882956 3301.0467608297668,326.1887548377963 C3303.109904733678,328.5468333612471 3304.1414766856333,341.1232521529828 3304.1414766856333,369.9442118840443 C3304.1414766856333,398.7651716151058 3303.109904733678,411.34159040684153 3301.0467608297668,413.43766020546445 C3299.2415099138448,415.27172127925905 3297.694151985912,419.46386087650444 3297.694151985912,422.86997429926623 C3297.694151985912,429.9442098696177 3287.3784324663575,455.09704745308954 3284.283716610491,455.09704745308954 C3283.2521446585356,455.09704745308954 3282.2205727065802,456.6690998020563 3282.2205727065802,458.50316087585134 C3282.2205727065802,460.5992306744738 3280.157428802669,464.5293615468913 3277.8363919107696,467.67346624482525 C3275.257462030881,470.5555622179313 3271.389067211048,475.79573671448816 3269.325923307137,479.20185013724995 C3264.4259565353486,487.062111882085 3244.052410484229,507.7608011434836 3236.315620844563,512.7389669152121 C3232.9630120007077,514.835036713835 3227.8051522409305,518.7651675862526 3224.968329373053,521.1232461097029 C3221.873613517187,523.7433333579811 3218.005218697354,525.839403156604 3216.199967781432,525.839403156604 C3214.39471686551,525.839403156604 3212.589465949588,526.6254293310872 3212.07367997361,527.6734642303986 C3211.0421080216547,530.5555602035047 3188.347525078635,541.5599266462737 3183.7054512948357,541.5599266462737 C3181.6423073909245,541.5599266462737 3179.063377511036,542.6079615455851 3177.516019583103,543.918005169724 C3173.3897317752812,548.3721534917972 3142.442573216618,553.0883105386984 3118.458525333654,553.0883105386984 C3095.5060494026457,553.3503192635262 3061.722067976105,548.3721534917972 3056.5642082163276,544.4420226193797 C3055.274743276383,543.1319789952408 3051.1484554685617,541.5599266462737 3047.5379536367177,540.7739004717901 C3034.1275182612967,537.3677870490283 2999.5698578707897,514.0490105393515 2982.5489206635248,496.75643470071464 C2966.8174483962043,480.7739024862167 2946.959688321062,453.52499510412235 2946.959688321062,448.0228118827381 C2946.959688321062,446.97477698342664 2945.15443740514,442.5206286613534 2943.0912935012293,438.32848906410845 C2940.7702566093294,434.13634946686307 2937.933433741452,426.276087722028 2936.6439688015075,421.29792195029904 C2935.3545038615634,416.05774745374265 2933.0334669696636,407.14945080959615 2931.7440020297195,401.385258863384 C2928.1335001978755,387.76080517233686 2928.391393185864,354.4856971192021 2931.7440020297195,341.1232521529828 C2933.2913599576523,335.35906020677066 2935.612396849552,325.664737388141 2936.9018617894967,319.3765279922727 C2938.4492197174295,313.3503273212327 2940.7702566093294,308.3721615495042 2942.059721549274,308.3721615495042 C2943.349186489218,308.3721615495042 2944.3807584411734,306.53810047570914 2944.3807584411734,304.1800219522588 C2944.3807584411734,298.41583000604624 2954.9543709487166,276.931114570164 2957.7911938165944,276.931114570164 C2958.8227657685497,276.931114570164 2959.854337720505,275.3590622211973 2959.854337720505,273.2629924225748 C2959.854337720505,268.28482665084584 2992.6067471950905,234.4857011480558 3007.5645404984443,224.00535215494256 C3024.32758471772,212.47696826251786 3044.959023756829,202.25862799423248 3064.3009978559935,195.97041859836463 C3076.42196829147,191.77827900111924 3087.5113667749906,190.73024410180778 3116.137488441754,190.73024410180778 C3147.600432976395,190.46823537697992 3155.079329628072,191.25426155146351 3171.5844808593592,196.75644477284777 z" stroke-linecap="round" stroke-width="0" id="svg_5" fill="#ffffff" fill-opacity="1"/>
</g>
		<g id="fs-_6aRVJ84gXIQVZVjh9" stroke-width="0" fill="#ffffff" fill-opacity="1">
<path style="stroke: none; stroke-width: 1; stroke-dasharray: none; stroke-linecap: butt; stroke-dashoffset: 0; stroke-linejoin: miter; stroke-miterlimit: 4; fill-rule: nonzero; opacity: 1;" d="M348.68793358782534,14.13624425975604 C341.7248229121261,14.66026170941177 334.7617122364269,16.23231405837896 333.21435430849374,17.280348957689966 C331.92488936854943,18.590392581829292 327.2828155847499,20.162444930796482 323.1565277769282,21.210479830107488 C312.5829152693849,23.83056707838614 289.3725463503875,39.813099292883635 280.6041847587663,51.07947446048047 C276.4778969509445,56.057640232208996 270.28846523921186,66.01397177566696 266.93585639535667,72.82619862119054 C263.84114053949037,79.90043419154199 260.23063870764634,85.66462613775411 259.19906675569086,85.66462613775411 C257.9096018157466,85.66462613775411 257.13592285178004,87.23667848672085 257.13592285178004,89.33274828534377 C257.13592285178004,91.42881808396623 251.9780630920028,103.48121942604666 245.78863138027017,116.31964694261023 C225.41508532915023,157.4550167405796 208.1362551338966,195.18427311578762 208.1362551338966,198.06636908889368 C208.1362551338966,199.63842143786042 207.10468318194117,200.94846506199974 205.557325254008,200.94846506199974 C204.26786031406368,200.94846506199974 202.9783953741194,202.52051741096693 202.9783953741194,204.6165872095894 C202.9783953741194,207.76069190752332 175.8996316352891,265.9266288193021 169.19441394757874,276.9309952620706 C167.90494900763443,279.02706506069353 166.0996980917124,282.6951872082832 165.32601912774584,284.79125700690565 C164.55234016377923,286.8873268055286 158.87869442802432,299.2017368724364 152.6892627162917,312.30217311382785 C146.49983100455904,325.1406006303919 136.18411148500465,347.6733509655851 129.4788937972943,362.08383083111585 C122.77367610958392,376.4943106966466 109.8790267101409,403.4812093539131 101.11066511851966,422.3458375415171 C92.34230352689843,440.94845700429323 82.8002629713106,461.385137540864 80.221333091422,467.41133821190397 C77.6424032115334,473.6995476077718 74.80558034365595,478.6777133795008 73.51611540371164,478.6777133795008 C72.4845434517562,478.6777133795008 71.45297149980077,480.249765728468 71.45297149980077,482.34583552709046 C71.45297149980077,484.4419053257129 66.29511174002356,496.49430666779335 60.10568002829092,509.3327341843569 C47.468923616836776,535.0095892174845 17.553337010129006,597.891683176164 11.106012310407506,612.8261804913504 C8.784975418507765,618.0663549879068 6.979724502585745,624.616573108603 6.979724502585745,627.4986690817091 C6.979724502585745,630.642773779643 5.690259562641444,633.7868784775769 4.400794622697144,634.5729046520605 C1.3060787668308231,636.668974450683 1.048185778841963,682.2584925707256 4.142901634708284,684.0925536445206 C5.432366574652584,684.8785798190038 7.237617490574605,690.1187543155606 8.269189442530045,695.358928812117 C10.074440358452065,705.0532516307471 26.32169860175025,732.8261764624972 30.19009342158315,732.8261764624972 C31.479558361527452,732.8261764624972 34.05848824141605,734.3982288114639 35.863739157338074,736.232289885259 C44.37420776097046,744.8785778045772 57.0109641724246,748.5466999521668 78.15818918751113,748.5466999521668 C90.02126663499868,748.5466999521668 100.07909316656423,747.4986650528558 100.85277213053081,746.1886214287165 C101.62645109449738,744.8785778045772 105.23695292634143,743.0445167307826 108.58956177019661,742.258490556299 C119.67896025371759,739.3763945831929 146.49983100455904,721.8218100197282 152.17347674031396,713.4375308252374 C160.16815936796863,702.1711556576406 164.03655418780153,695.6209375369449 166.61548406769012,689.332728141077 C167.90494900763443,686.450632167971 173.57859474338935,676.2322918996856 179.25224047914426,666.7999778058838 C184.92588621489918,657.6296724369095 190.34163896266526,647.4113321686241 191.11531792663183,644.2672274706902 C192.14688987858727,641.1231227727562 194.21003378249816,638.503035524478 195.49949872244247,638.503035524478 C196.78896366238675,638.503035524478 197.8205356143422,636.9309831755108 197.8205356143422,635.0969221017162 C197.8205356143422,633.0008523030933 201.43103744618622,626.4506341823976 205.557325254008,620.6864422361855 L213.2941148936738,609.6820757934165 L359.00365310737976,609.6820757934165 L504.7131913210857,609.6820757934165 L511.16051602080717,620.1624247865298 C514.7710178526512,625.9266167327419 517.6078407205287,631.1667912292987 517.6078407205287,632.2148261286097 C517.6078407205287,633.0008523030933 521.4762355403616,642.1711576720677 526.3762023121499,652.3894979403531 C539.270851711593,680.6864402217589 543.3971395194147,690.1187543155606 543.3971395194147,691.9528153893552 C543.3971395194147,693.0008502886667 544.4287114713701,695.0969200872892 545.9760693993032,696.9309811610842 C547.2655343392476,698.7650422348788 551.6497151350582,704.0052167314357 555.2602169669022,708.7213737783368 C562.9970066065681,718.4156965969664 586.7231615015431,737.28032478457 600.1335968769639,744.0925516300936 C609.9335304205406,749.0707174018225 631.338648423616,754.3108918983794 641.3964749551815,754.3108918983794 C667.7015597300452,754.3108918983794 694.5224304808867,738.3283596838814 710.7696887241849,713.1755221004096 C717.2170134239063,703.2191905569521 717.4749064118952,701.1231207583296 717.4749064118952,667.3239952555391 C717.4749064118952,638.7650442493054 716.7012274479287,629.8567476051594 712.8328326280957,621.4724684106686 C710.2539027482071,615.7082764644565 706.1276149403853,606.7999798203105 704.0644710364745,601.8218140485815 C701.7434341445747,596.8436482768525 698.3908253007196,589.5074039816736 696.3276813968087,585.5772731092561 C694.5224304808867,581.9091509616665 692.9750725529535,576.9309851899375 692.9750725529535,574.5729066664871 C692.9750725529535,572.2148281430364 691.943500600998,570.3807670692418 690.3961426730649,570.3807670692418 C689.1066777331206,570.3807670692418 687.8172127931763,569.0707234451024 687.8172127931763,567.4986710961357 C687.8172127931763,565.9266187471685 683.6909249853545,555.7082784788831 678.7909582135662,544.965920760942 C673.8909914417778,534.2235630430009 669.7647036339562,524.7912489491991 669.7647036339562,523.7432140498877 C669.7647036339562,522.9571878754041 666.4120947901009,515.0969261305695 662.2858069822792,506.45063821125086 C658.4174121624462,497.5423415671048 653.0016594146803,485.75194894985225 650.6806225227805,479.9877570036401 C648.1016926428919,474.22356505742755 644.4911908110479,465.83928586293723 642.6859398951258,461.64714626569184 C639.3333310512706,454.31090197051253 627.2123606157942,427.32400331324607 619.4755709761284,409.24540130012565 C617.4124270722175,404.7912529780524 612.2545673124404,393.52487781045556 608.1282795046186,384.0925637166538 C603.744098708808,374.660249622852 600.1335968769639,364.9659268042219 600.1335968769639,362.6078482807716 C600.1335968769639,360.24976975732125 599.1020249250084,358.1536999586983 597.5546669970753,358.1536999586983 C596.265202057131,358.1536999586983 594.9757371171867,356.84365633455945 594.9757371171867,355.27160398559226 C594.9757371171867,353.69955163662553 590.8494493093649,343.48121136834015 585.9494825375766,332.73885365039905 C581.0495157657882,321.99649593245795 576.9232279579664,312.5641818386557 576.9232279579664,311.5161469393447 C576.9232279579664,310.7301207648611 573.5706191141113,302.86985902002607 569.4443313062895,294.2235711007079 C565.5759364864566,285.3152744565614 560.1601837386905,273.5248818393088 557.8391468467909,267.7606898930967 C555.2602169669022,261.9964979468846 551.6497151350582,253.6122187523938 549.8444642191362,249.42007915514841 C541.3339956155038,230.293442242717 530.7603831079606,206.71265700821186 526.8919882881277,197.01833418958222 C520.4446635884061,181.82182814956832 514.7710178526512,169.24540935783216 510.64473004482943,161.12313888816925 C508.83947912890744,157.4550167405796 507.2921212009743,152.47685096885107 507.2921212009743,150.11877244540074 C507.2921212009743,147.76069392194995 506.2605492490188,145.92663284815535 504.7131913210857,145.92663284815535 C503.42372638114136,145.92663284815535 502.13426144119705,144.61658922401602 502.13426144119705,143.0445368750493 C502.13426144119705,139.9004321771149 488.98171905376523,108.72139392260306 479.6975714861662,90.38078318465523 C477.89232057024424,86.71266103706557 476.3449626423111,82.25851271499232 476.3449626423111,80.948469090853 C476.3449626423111,79.37641674188626 472.2186748344893,70.99213754739549 466.80292208672324,62.08384090324944 C458.034560495102,46.88733486323508 432.245261696216,22.78253217907468 424.76636504453904,22.78253217907468 C423.2190071166059,22.78253217907468 418.8348263207953,21.210479830107488 414.96643150096236,19.114410031485022 C407.22964186129656,15.1842791590675 369.577265614923,12.30218318596144 348.68793358782534,14.13624425975604 zM371.89830250682274,297.89169324829754 C373.4456604347559,302.86985902002607 377.8298412305665,314.1362341876229 381.95612903838827,322.7825221069411 C385.8245238582212,331.4288100262597 390.72449063000954,342.69518519385656 393.04552752190926,347.6733509655851 C395.10867142582015,352.65151673731407 400.26653118559733,364.44190935456663 404.650711981408,373.8742234483684 C408.7769997892297,383.3065375421702 413.4190735730292,393.2628690856277 414.4506455249847,396.1449650587342 C415.74011046492893,399.0270610318403 419.60850528476186,408.1973664008142 423.2190071166059,416.3196368704771 C426.8295089484499,424.7039160649674 433.0189406601826,438.32836975601504 436.6294424920266,446.4506402256775 C440.23994432387065,454.83491942016826 444.3662321316924,464.5292422387979 446.17148304761446,468.19736438638756 C447.7188409755476,471.8654865339772 449.26619890348076,475.5336086815669 449.7819848794585,476.58164358087834 C450.2977708554362,477.3676697553615 448.750412927503,480.249765728468 446.4293760356033,482.34583552709046 C443.0767671917481,486.0139576746801 431.9873687082271,486.53797512433584 362.87204792721263,486.53797512433584 C294.014620134187,486.53797512433584 282.66732866267716,486.0139576746801 279.31471981882197,482.34583552709046 C274.4147530470336,477.3676697553615 274.4147530470336,477.3676697553615 278.5410408548554,468.7213818360433 C284.47257957859915,456.9309892187907 289.88833232636523,444.354570427055 304.0724466657525,410.5554449242645 C305.36191160569683,406.88732277667486 308.1987344735743,400.33710465597915 310.00398538949634,396.1449650587342 C312.0671292934072,391.69081673666096 315.1618451492735,384.0925637166538 317.48288204117324,379.1143979449248 C323.9302067408948,363.3938744552552 332.18278235653827,344.2672375428233 340.17746498419297,326.7126529793586 C351.78264944369164,300.51178049657574 352.04054243168054,299.72575432209214 353.8457933476025,293.1755362013964 C355.13525828754683,288.4593791544953 357.1984021914577,287.41134425518385 362.3562619512349,287.9353617048396 C367.51412171101214,288.4593791544953 369.83515860291186,290.8174576779461 371.89830250682274,297.89169324829754 z" stroke-linecap="round" stroke-width="0" id="svg_6" fill="#ffffff" fill-opacity="1"/>
</g>
		<g id="7FU_zfeqCn0NQOEzfX1ZV" stroke-width="0" fill="#ffffff" fill-opacity="1">
<path style="stroke: none; stroke-width: 1; stroke-dasharray: none; stroke-linecap: butt; stroke-dashoffset: 0; stroke-linejoin: miter; stroke-miterlimit: 4; fill-rule: nonzero; opacity: 1;" d="M2895.3811658706613,843.1319599786307 C2891.2548780628395,847.8481170255318 2887.128590255018,854.9223525958832 2886.3549112910514,859.1144921931286 C2885.3233393390956,863.0446230655461 2883.5180884231736,866.9747539379637 2882.2286234832295,867.7607801124468 C2880.939158543285,868.8088150117583 2879.9075865913296,874.0489895083151 2879.9075865913296,879.8131814545272 L2879.9075865913296,890.0315217228126 L2890.9969850748507,890.0315217228126 C2910.0810661860264,889.7695129979847 2918.591534789659,876.4070680317654 2914.7231399698258,851.7782478979493 C2912.4021030779263,835.0096895089682 2905.438992402227,832.1275935358617 2895.3811658706613,843.1319599786307 z" stroke-linecap="round" stroke-width="0" id="svg_7" fill="#ffffff" fill-opacity="1"/>
</g>
		<g id="RsuHCUnpaTIn5NNAIgiH8" stroke-width="0" fill="#ffffff" fill-opacity="1">
<path style="stroke: none; stroke-width: 1; stroke-dasharray: none; stroke-linecap: butt; stroke-dashoffset: 0; stroke-linejoin: miter; stroke-miterlimit: 4; fill-rule: nonzero; opacity: 1;" d="M3164.3636148382225,931.1667325022349 C3154.8215742826346,940.8610553208646 3125.4217736519045,980.6863814946951 3100.406153816985,1018.4156378699026 C3063.0116705586,1074.7475137078864 3056.8222388468675,1081.0357231037547 3040.8328735915584,1081.2977318285825 C3031.5487260239593,1081.2977318285825 3028.711903156082,1079.9876882044432 3022.0066854683714,1072.1274264596082 C3016.0751467446275,1065.0531908892567 3014.012002840717,1060.3370338423556 3014.012002840717,1052.476772097521 C3014.012002840717,1040.9483882050963 3018.3961836365274,1035.1841962588842 3029.22768913206,1032.8261177354334 C3036.964478771725,1031.2540653864667 3064.3011354985447,1006.3632365278227 3071.264246174244,994.834852635398 C3073.3273900781546,991.1667304878083 3076.9378919099986,981.9964251188344 3079.2589288018985,974.6601808236551 C3082.8694306337425,963.1317969312304 3083.127323621731,959.9876922332965 3080.5483937418426,955.5335439112232 C3076.67999892201,949.2453345153554 3068.1695303183774,946.3632385422493 3059.1432757387674,948.7213170656996 C3051.6643790870903,950.5553781394947 3015.3014677806614,984.8785210919405 3010.143608020884,994.834852635398 C3008.338357104962,998.5029747829876 3004.469962285129,1003.7431492795445 3001.6331394172516,1006.6252452526505 C2996.9910656334523,1011.8654197492069 2988.7384900178085,1023.3938036416316 2969.9123018946216,1051.1667284733817 C2958.307117435123,1068.4593043120185 2944.3808960837246,1081.2977318285825 2937.4177854080253,1081.2977318285825 C2929.9388887563487,1081.2977318285825 2916.786346368917,1064.7911821644288 2913.6916305130503,1051.4287371982095 C2912.4021655731062,1045.4025365271696 2910.0811286812063,1035.9702224333673 2908.533770753273,1030.2060304871552 C2906.98641282534,1024.441838540943 2905.6969478853957,1013.4374720981741 2905.6969478853957,1005.5772103533391 C2905.6969478853957,978.5903116960726 2887.3865457381867,963.1317969312304 2877.070826218632,981.2103989443508 C2874.7497893267323,985.1405298167683 2863.4024978552225,1002.1710969305773 2851.797313395724,1019.2016640443862 C2832.4553392965595,1047.76061505062 2828.3290514887376,1056.9309204195938 2832.4553392965595,1061.1230600168392 C2834.0026972244927,1062.4331036409785 2847.928918575891,1043.5684754533745 2858.760424071423,1025.751882165082 C2861.081460963323,1021.559742567837 2864.434069807178,1018.4156378699026 2865.981427735111,1018.4156378699026 C2869.8498225549442,1018.4156378699026 2877.328719206621,1035.446204983712 2879.133970122543,1049.332667399587 C2879.9076490865095,1055.8828855202828 2882.2286859784094,1064.2671647147731 2884.29182988232,1068.1972955871906 C2886.097080798242,1071.8654177347803 2887.6444387261754,1076.0575573320257 2887.6444387261754,1077.6296096809929 C2887.6444387261754,1080.7737143789268 2899.507516173663,1104.3544996134315 2903.6338039814846,1109.3326653851605 C2910.854807645173,1118.5029707541344 2936.38621345607,1107.7606130361933 2953.407150663335,1088.6339761237614 C2959.5965823750676,1081.55974055341 2968.6228369546775,1069.50733921133 2974.0385897024435,1061.647077466495 C2987.1911320898753,1041.472405654752 2992.091098861664,1042.2584318292356 2994.1542427655745,1064.2671647147731 C2995.18581471753,1073.9614875334032 2997.7647445974185,1083.9178190768607 3000.0857814893184,1087.3239324996225 C3006.275213201051,1095.446202969285 3021.490899492394,1102.258429814809 3033.869762915859,1102.258429814809 C3042.896017495469,1102.258429814809 3046.506519327313,1100.424368741014 3058.369596774801,1089.420002298245 C3065.848493426478,1082.3457667278935 3080.8062867298318,1063.7431472651178 3091.379899237375,1048.2846325002756 C3114.590268156372,1013.4374720981741 3133.6743492675478,992.2147653871198 3141.9269248831915,992.2147653871198 C3150.179500498835,992.2147653871198 3151.4689654387794,999.5510096822991 3148.116356594924,1024.9658559905988 C3146.568998666991,1036.494239883023 3144.2479617750914,1057.7169465940774 3142.958496835147,1072.1274264596082 C3141.4111389072136,1086.537906325139 3139.8637809792804,1100.9483861906697 3139.090102015314,1103.8304821637757 C3137.8006370753697,1109.0706566603326 3141.669031895203,1112.7387788079222 3148.116356594924,1112.7387788079222 C3151.726858426768,1112.7387788079222 3161.011005994367,1101.7344123651533 3161.011005994367,1097.542272767908 C3161.011005994367,1090.7300459223843 3186.5424118052642,1040.9483882050963 3194.27920144493,1032.0400915609503 C3203.821242000518,1021.559742567837 3217.2316773759385,1020.5117076685256 3225.742145979571,1029.4200043126716 C3230.6421127513595,1034.9221875340563 3243.536762150802,1060.0750251175282 3243.536762150802,1064.529173439601 C3243.536762150802,1065.5772083389124 3245.5999060547133,1071.0793915602967 3247.9209429466127,1076.5815747816814 C3256.6893045382344,1096.7562465934243 3274.226027721477,1087.8479499492782 3300.0153265203626,1049.8566848492424 C3313.6836548837723,1029.4200043126716 3317.2941567156163,1029.6820130374995 3319.357300619527,1051.9527546478653 C3320.9046585474603,1067.9352868623628 3322.194123487405,1071.0793915602967 3329.6730201390815,1078.415635855476 C3338.9571677066806,1087.5859412244504 3352.6254960700903,1090.9920546472122 3368.0990753494216,1088.109958674106 C3378.414794868976,1086.0138888754832 3394.919946100263,1070.5553741106414 3407.5567025117175,1050.642711023726 C3422.5144958150713,1027.585943238877 3417.8724220312715,1020.2496989436977 3402.140949763951,1041.9964231044078 C3387.1831564605973,1062.6951123658064 3379.1884738329427,1068.1972955871906 3364.4885735175776,1068.1972955871906 C3352.6254960700903,1068.1972955871906 3351.5939241181345,1067.673278137535 3345.146599418413,1057.9789553189053 C3337.9255957547252,1046.7125801513084 3337.1519167907586,1029.6820130374995 3344.115027466458,1026.2758996147377 C3346.1781713703685,1025.2278647154262 3352.367603082101,1022.0837600174923 3357.7833558298676,1019.4636727692141 C3379.4463668209314,1008.721315051273 3396.725197016185,988.808651964358 3404.7198796438397,965.4898754546807 C3409.877739403617,950.2933694146668 3409.619846415628,944.5291774684542 3403.4304147038956,939.02699424707 C3396.4673040281964,933.00079357603 3389.762086340486,933.5248110256857 3378.1569018809873,940.8610553208646 C3366.8096104094775,947.935290891216 3335.862451850814,981.2103989443508 3324.7730533672934,997.716948608504 C3320.6467655594715,1004.0051580043723 3315.746798787683,1010.8173848498959 3313.941547871761,1012.6514459236905 C3312.136296955839,1014.4855069974856 3305.6889722561177,1023.9178210912874 3299.241647556396,1033.612143909917 C3282.47860333712,1058.7649814933889 3273.45234875751,1068.1972955871906 3265.4576661298556,1068.1972955871906 C3257.4629835022006,1068.1972955871906 3253.8524816703566,1060.3370338423556 3253.8524816703566,1043.3064667285466 C3253.8524816703566,1037.0182573326788 3252.8209097184013,1031.2540653864667 3251.531444778457,1030.468039211983 C3250.2419798385126,1029.6820130374995 3248.4367289225906,1023.3938036416316 3247.4051569706353,1016.581576796108 C3245.3420130667246,1000.3370358567827 3237.089437451081,983.3064687429733 3229.352647811415,978.0662942464169 C3223.6790020756603,974.1361633739994 3222.3895371357157,974.3981720988272 3214.1369615200724,979.3763378705562 C3205.110706940462,984.8785210919405 3181.900338021465,1012.3894371988627 3178.289836189621,1022.0837600174923 C3176.7424782616877,1026.0138908899098 3175.7109063097323,1026.5379083395655 3173.3898694178324,1024.1798298161152 C3169.7793675859884,1020.5117076685256 3169.7793675859884,1002.4331056554051 3173.3898694178324,995.6208788098816 C3174.6793343577765,993.0007915616034 3176.7424782616877,977.2802680719333 3177.5161572256543,960.5117096829522 C3179.063515153587,935.3588720994803 3178.8056221655984,929.5946801532682 3175.453013321743,926.9745929049895 C3172.358297465877,924.3545056567114 3170.553046549955,925.140531831195 3164.3636148382225,931.1667325022349 zM3395.6936250642298,962.3457707567468 C3395.6936250642298,976.7562506222775 3370.4201122413215,1005.5772103533391 3351.078138142157,1012.9134546485184 C3345.404492406402,1015.2715331719687 3344.115027466458,1015.0095244471408 3344.115027466458,1011.603411024379 C3344.115027466458,1007.9352888767894 3353.1412820460678,994.3108351857422 3362.6833226016556,983.3064687429733 C3365.0043594935555,980.6863814946951 3370.1622192533328,973.3501371995158 3374.0306140731655,967.0619278036479 C3379.7042598089206,957.891622434674 3382.7989756647867,955.5335439112232 3388.472621400542,955.5335439112232 C3394.4041601242857,955.5335439112232 3395.6936250642298,956.5815788105347 3395.6936250642298,962.3457707567468 zM3070.2326742222886,969.6820150519261 C3072.2958181261993,980.6863814946951 3056.564345858879,1003.4811405547166 3036.190799807759,1018.6776465947305 C3022.2645784563606,1029.1579955878437 3009.627822044906,1028.1099606885327 3019.9435415644607,1017.3676029705916 C3021.490899492394,1015.2715331719687 3024.843508336249,1011.0793935747233 3026.90665224016,1007.9352888767894 C3030.517154072004,1002.695114380233 3036.7065857837365,994.0488264609144 3043.6696964594357,984.8785210919405 C3058.6274897627895,964.9658580050254 3068.4274233063666,959.4636747836407 3070.2326742222886,969.6820150519261 z" stroke-linecap="round" stroke-width="0" id="svg_8" fill="#ffffff" fill-opacity="1"/>
</g>
		<g id="sdiwQBvB5bSP1gDBI8sDW" stroke-width="0" fill="#ffffff" fill-opacity="1">
<path style="stroke: none; stroke-width: 1; stroke-dasharray: none; stroke-linecap: butt; stroke-dashoffset: 0; stroke-linejoin: miter; stroke-miterlimit: 4; fill-rule: nonzero; opacity: 1;" d="M2424.468644505576,945.5772304157908 C2411.5739951061328,955.7955706840762 2401.2582755865783,973.6121639723688 2398.421452718701,990.3807223613499 C2397.6477737547343,995.6208968579067 2395.8425228388123,1000.8610713544631 2394.810950886857,1001.6470975289467 C2393.5214859469124,1002.4331237034303 2392.489913994957,1005.5772284013642 2392.489913994957,1008.7213330992981 C2392.489913994957,1024.965874038624 2346.58496213294,1091.778098869721 2335.495563649419,1091.778098869721 C2332.9166337695306,1091.778098869721 2330.0798109016528,1092.826133769032 2329.306131937686,1094.398186117999 C2326.9850950457867,1098.0663082655888 2317.18516150221,1097.542290815933 2306.6115489946665,1093.0881424938598 C2293.4590066072346,1087.5859592724755 2286.4958959315354,1074.4855230310836 2286.2380029435467,1054.5728599441686 L2285.980109955558,1038.3283190048433 L2304.8062980787445,1020.5117257165507 C2314.8641246103102,1010.817402897921 2326.9850950457867,1000.3370539048078 2331.627168829586,997.4549579317013 C2342.2007813371292,989.8567049116946 2356.384895676517,970.9920767240906 2356.384895676517,964.179849878567 C2356.384895676517,958.153649207527 2350.195463964784,955.5335619592483 2335.753456637408,955.5335619592483 C2328.274559985731,955.5335619592483 2324.406165165898,958.153649207527 2308.6746928985776,974.6601988716802 C2298.874759355001,985.4025565896213 2285.46432397958,1001.9091062537746 2279.0169992798587,1011.3414203475763 C2267.9276007963376,1027.84797001173 2261.738169084605,1036.756266655876 2255.806630360861,1043.8305022262275 C2254.517165420917,1045.6645633000226 2253.2277004809725,1048.022641823473 2253.2277004809725,1049.3326854476122 C2253.2277004809725,1050.642729071751 2249.8750916371173,1055.882903568308 2245.4909108413067,1060.5990606152086 C2237.754121201641,1069.769365984183 2235.4330843097414,1078.677662628329 2240.8488370575074,1078.677662628329 C2242.6540879734293,1078.677662628329 2246.5224827932625,1075.533557930395 2249.8750916371173,1071.3414183331497 C2254.775058408906,1065.3152176621097 2256.06452334885,1064.791200212454 2258.38556024075,1068.1973136352158 C2259.6750251806943,1070.2933834338387 2260.9644901206384,1074.7475317559115 2260.9644901206384,1077.8916364538454 C2260.9644901206384,1081.0357411517798 2262.253955060583,1084.4418545745416 2263.543420000527,1085.2278807490247 C2265.0907779284603,1086.0139069235083 2266.1223498804156,1089.1580116214423 2266.1223498804156,1091.778098869721 C2266.1223498804156,1098.5903257152445 2276.43806939997,1109.3326834331856 2284.9485380036026,1111.428753231808 C2288.8169328234353,1112.4767881311195 2292.685327643268,1114.3108492049141 2293.4590066072346,1115.6208928290534 C2294.2326855712013,1116.9309364531923 2301.1957962469005,1117.9789713525038 2308.9325858865664,1117.9789713525038 C2328.7903459617087,1117.9789713525038 2345.811283168973,1106.1885787352512 2361.5427554362936,1081.2977498766077 C2367.7321871480267,1071.3414183331497 2374.4374048357367,1065.0532089372819 2377.790013679592,1066.3632525614212 C2379.595264595514,1066.887270011077 2382.1741944754026,1075.0095404807394 2383.463659415347,1084.4418545745416 C2385.01101734328,1093.8741686683434 2387.5899472231686,1103.568491486973 2389.6530911270797,1105.9265700104233 C2400.7424896106004,1119.289014976643 2432.2054341452417,1122.433119674577 2448.7105853765283,1111.690761956636 C2479.657743935192,1091.516090144893 2496.162895166479,1055.62089484348 2496.162895166479,1006.6252633006757 C2496.162895166479,977.2802861199584 2491.5208213826795,962.8698062544277 2479.141957959214,954.7475357847652 C2471.4051683195485,949.5073612882084 2454.1263381242948,948.9833438385526 2449.742157328484,953.4374921606259 C2447.1632274485955,956.0575794089041 2445.873762508651,954.7475357847652 2443.5527256167516,948.197317664069 C2439.6843307969184,938.2409861206115 2434.7843640251303,937.7169686709558 2424.468644505576,945.5772304157908 zM2469.599917403626,983.5684955158263 C2484.0419247310024,997.7169666565292 2488.941891502791,1036.2322492062203 2479.399850947203,1060.0750431655533 C2470.3735963675927,1082.8698022255744 2451.547408244406,1099.6383606145555 2435.5580429890965,1099.6383606145555 C2416.216068889932,1099.6383606145555 2408.4792792502662,1081.559758601435 2411.316102118144,1043.5684935013996 C2412.605567058088,1026.5379263875907 2418.7949987698207,1007.9353069248145 2422.9212865776426,1007.9353069248145 C2423.952858529598,1007.9353069248145 2427.305467373453,1003.4811586027417 2430.6580762173085,997.978975381357 C2440.973795736863,980.9484082675481 2459.7999838600495,974.1361814220245 2469.599917403626,983.5684955158263 z" stroke-linecap="round" stroke-width="0" id="svg_9" fill="#ffffff" fill-opacity="1"/>
</g>
		<g id="xBHfSp8UH2FkUy-WB1GSe" stroke-width="0" fill="#ffffff" fill-opacity="1">
<path style="stroke: none; stroke-width: 1; stroke-dasharray: none; stroke-linecap: butt; stroke-dashoffset: 0; stroke-linejoin: miter; stroke-miterlimit: 4; fill-rule: nonzero; opacity: 1;" d="M2584.362216731275,949.769428957075 C2579.9780359354645,952.651524930181 2555.220309088534,984.3545806343486 2542.0677667011023,1004.0052349964362 C2535.6204420013805,1013.437549090238 2529.173117301659,1022.6078544592119 2527.8836523617147,1024.441915533007 C2526.336294433782,1026.2759766068016 2522.21000662596,1032.3021772778416 2518.8573977821047,1038.0663692240541 C2515.5047889382495,1043.8305611702663 2511.8942871064055,1049.070735666823 2511.120608142439,1049.8567618413063 C2507.510106310595,1053.0008665392406 2500.8048886228844,1065.8392940558042 2500.8048886228844,1069.5074162033939 C2500.8048886228844,1079.2017390220235 2505.446962406684,1074.223573250295 2527.625759373726,1041.9965000964717 C2530.978368217581,1037.0183343247427 2539.2309438332245,1027.586020230941 2545.936161520935,1021.0358021102452 L2557.7992389684227,1009.2454094929926 L2563.2149917161887,1015.7956276136883 C2566.8254935480327,1020.2497759357616 2567.857065499988,1024.441915533007 2566.8254935480327,1030.206107479219 C2566.051814584066,1034.3982470764645 2564.246563668144,1051.6908229151013 2562.699205740211,1068.1973725792545 C2561.1518478122775,1084.7039222434082 2558.830810920378,1101.7344893572172 2557.5413459804336,1105.926628954462 C2555.9939880525008,1110.1187685517075 2554.962416100545,1117.9790302965425 2554.962416100545,1123.4812135179268 C2554.962416100545,1132.913527611729 2555.478202076523,1133.6995537862126 2562.441312752222,1133.6995537862126 C2568.372851475966,1133.6995537862126 2571.2096743438433,1131.6034839875897 2575.335962151665,1124.2672396924104 C2578.4306780075312,1119.2890739206819 2580.751714899431,1113.7868906992971 2580.751714899431,1111.9528296255025 C2580.751714899431,1110.3807772765354 2585.9095746592084,1098.3283759344554 2592.3568993589297,1085.2279396930635 C2603.7041908304395,1061.9091631833867 2619.43566309776,1041.9965000964717 2626.398773773459,1041.9965000964717 C2633.8776704251363,1041.9965000964717 2652.445965560334,1057.7170235861413 2652.961751536312,1064.267241706837 C2652.961751536312,1065.5772853309763 2655.2827884282115,1071.6034860020163 2658.1196112960893,1077.367677948229 C2660.9564341639666,1083.131869894441 2663.2774710558665,1090.2061054647925 2663.2774710558665,1093.0882014378985 C2663.535364043855,1098.852393384111 2671.7879396594985,1110.1187685517075 2675.9142274673204,1110.1187685517075 C2679.2668363111757,1110.1187685517075 2696.803559494418,1099.6384195585943 2696.803559494418,1097.5423497599718 C2696.803559494418,1096.4943148606603 2700.1561683382733,1092.040166538587 2704.024563158106,1087.8480269413421 C2707.892957977939,1083.393878619269 2713.824496701683,1075.271608149606 2717.1771055455383,1069.5074162033939 C2727.2349320771036,1052.7388578144128 2733.1664708008475,1046.7126571433723 2737.2927586086694,1050.1187705661341 C2739.0980095245914,1051.6908229151013 2740.645367452524,1055.8829625123467 2740.645367452524,1059.2890759351085 C2740.645367452524,1062.4331806330424 2741.67693940448,1065.8392940558042 2742.966404344424,1066.8873289551157 C2744.2558692843686,1067.6733551295988 2746.0611202002906,1071.6034860020163 2747.092692152246,1076.0576343240896 C2749.413729044146,1086.7999920420307 2757.666304659789,1103.306541706184 2762.8241644195664,1107.7606900282572 C2766.692559239399,1110.904794726191 2768.2399171673324,1110.1187685517075 2777.78195772292,1099.3764108337664 C2791.1923930983407,1084.1799047937525 2808.7291162815836,1049.332744391651 2819.0448358011377,1017.1056712378277 C2821.3658726930375,1009.7694269426484 2824.202695560915,1002.1711739226412 2824.9763745248815,1000.0751041240187 C2826.007946476837,997.9790343253958 2828.071090380748,989.5947551309055 2829.87634129667,981.7344933860704 C2831.681592212592,973.8742316412354 2834.002629104492,963.9179000977779 2835.0342010564473,959.9877692253604 C2836.5815589843805,953.4375511046646 2836.0657730084026,952.651524930181 2831.9394852005807,953.4375511046646 C2829.360555320692,953.9615685543204 2826.265839464826,957.1056732522543 2825.2342675128702,960.773795399844 C2824.460588548904,964.4419175474336 2822.139551657004,972.5641880170961 2820.334300741082,979.1144061377922 C2809.50279524555,1021.0358021102452 2792.2239650502966,1064.0052329820091 2784.7450683986194,1068.1973725792545 C2777.5240647349315,1072.127503451672 2768.7557031433103,1060.8611282840752 2767.208345215377,1045.4026135192335 C2766.4346662514104,1038.5903866737099 2764.3715223474996,1031.2541423785306 2762.8241644195664,1029.1580725799076 C2761.276806491633,1027.0620027812852 2759.987341551689,1012.1275054660987 2759.987341551689,991.9528336543558 C2759.987341551689,973.3502141915797 2759.471555575711,958.1537081515658 2758.9557695997332,958.1537081515658 C2758.439983623756,958.1537081515658 2753.5400168519673,959.9877692253604 2748.1242641042013,962.6078564736385 C2737.2927586086694,967.3240135205397 2736.7769726326915,968.8960658695069 2733.1664708008475,1006.6253222447144 C2731.1033268969363,1027.0620027812852 2725.4296811611816,1045.6646222440613 2720.0139284134157,1049.8567618413063 C2718.9823564614603,1050.6427880157898 2714.082389689672,1057.4550148613134 2708.666636941906,1065.0532678813206 C2697.8351314463735,1080.7737913709907 2691.645699734641,1087.5860182165143 2685.972053998886,1089.6820880151367 C2677.203692407265,1093.3502101627264 2674.6247625273763,1087.3240094916864 2667.919544839666,1048.5467182171674 C2666.3721869117326,1039.9004302978487 2663.535364043855,1029.1580725799076 2661.7301131279332,1024.441915533007 C2659.6669692240225,1019.9877672109337 2658.1196112960893,1015.5336188888605 2658.1196112960893,1014.4855839895495 C2658.1196112960893,1013.437549090238 2655.7985744041894,1009.2454094929926 2652.7038585483233,1005.0532698957472 C2644.9670689086574,994.0489034529783 2635.4250283530696,994.8349296274619 2622.788271941615,1007.411348419198 C2608.8620505902168,1021.297810835073 2602.1568329025067,1029.9440987543912 2600.0936889985956,1036.494316875087 C2599.06211704664,1040.1624390226766 2596.7410801547403,1041.9965000964717 2594.1621502748517,1041.472482646816 C2590.5516484430077,1040.6864564723323 2589.777969479041,1037.5423517743984 2590.293755455019,1022.345845734384 C2590.809541430997,1012.3895141909265 2592.099006370941,1003.2192088219526 2593.6463642988742,1001.6471564729854 C2594.9358292388183,1000.3371128488466 2596.225294178763,987.4986853322825 2596.225294178763,973.3502141915797 C2596.225294178763,950.5554551315586 2595.709508202785,947.6733591584525 2591.8411133829522,947.6733591584525 C2589.2621835030636,947.6733591584525 2585.9095746592084,948.7213940577635 2584.362216731275,949.769428957075 z" stroke-linecap="round" stroke-width="0" id="svg_10" fill="#ffffff" fill-opacity="1"/>
</g>
		<g id="1uj6p5GxIqhcuH6jniVg6" stroke-width="0" fill="#ffffff" fill-opacity="1">
<path style="stroke: none; stroke-width: 1; stroke-dasharray: none; stroke-linecap: butt; stroke-dashoffset: 0; stroke-linejoin: miter; stroke-miterlimit: 4; fill-rule: nonzero; opacity: 1;" d="M3253.852494997649,1160.4243781685636 C3219.036941619153,1161.472413067875 3184.9950672046234,1163.5684828664976 3177.7740635409355,1165.1405352154648 C3170.8109528652362,1166.4505788396036 3143.9900821143947,1168.8086573630544 3118.4586763034977,1170.3807097120211 C3060.432754006004,1173.524814409955 3022.006698795664,1177.1929365575447 2991.8332192009675,1182.1711023292737 C2979.196462789513,1184.2671721278962 2962.691311558226,1186.1012332016912 2955.470307894538,1186.1012332016912 C2948.507197218839,1186.1012332016912 2939.2230496512398,1187.1492681010022 2935.0967618434183,1188.7213204499694 C2930.9704740355965,1190.0313640741088 2915.4968947562647,1192.389442597559 2900.539101452911,1193.6994862216984 C2874.2340166780473,1196.3195734699766 2864.4340831344703,1197.6296170941155 2818.0133452964756,1205.7518875637784 C2805.892374860999,1207.8479573624008 2791.9661535096006,1209.682018436196 2786.8082937498234,1209.682018436196 C2781.9083269780353,1209.682018436196 2776.750467218258,1210.7300533355074 2775.203109290325,1212.302105684474 C2773.9136443503808,1213.6121493086134 2763.0821388548484,1215.9702278320638 2750.961168419372,1217.280271456203 C2721.561367788642,1220.9483936037927 2698.093105881656,1225.1405332010381 2682.877419590313,1229.594681523111 C2676.1722019026024,1231.6907513217338 2666.372268359026,1233.2628036707006 2661.472301587238,1233.2628036707006 C2656.5723348154493,1233.2628036707006 2650.3829031037167,1234.57284729484 2647.803973223828,1235.8828909189792 C2644.9671503559507,1237.454943267946 2635.6830027883516,1239.289004341741 2626.6567482087416,1240.0750305162242 C2617.6304936291313,1241.1230654155356 2609.120025025499,1242.9571264893302 2607.572667097566,1244.0051613886417 C2606.0253091696327,1245.315205012781 2598.030626541978,1247.4112748114035 2589.5201579383456,1248.7213184355428 C2571.7255417671145,1251.6034144086489 2551.867781691972,1256.057562730722 2540.2625972324736,1259.7256848783118 C2535.620523448674,1261.2977372272785 2526.336375881075,1263.3938070259014 2519.6311581933646,1264.7038506500403 C2491.7787154905677,1270.206033871425 2478.626173103136,1273.350138569359 2474.499885295314,1275.4462083679814 C2472.178848403414,1276.7562519921207 2465.215737727715,1278.5903130659153 2459.0263060159823,1279.376339240399 C2452.8368743042497,1280.4243741397104 2446.905335580506,1281.9964264886771 2445.357977652573,1283.0444613879886 C2444.0685127126285,1284.354505012128 2437.1054020369293,1285.9265573610946 2429.8843983732413,1286.974592260406 C2422.921287697542,1288.0226271597176 2415.958177021843,1289.8566882335122 2414.4108190939096,1290.9047231328236 C2412.0897822020097,1292.7387842066182 2406.6740294542437,1294.3108365555854 2373.6637269916696,1302.1710983004205 C2361.2848635682044,1305.0531942735265 2361.0269705802157,1305.0531942735265 2362.574328508149,1314.4855083673283 C2363.0901144841264,1319.4636741390573 2365.4111513760263,1329.157996957687 2367.2164022919483,1335.9702238032105 C2370.0532251598256,1346.7125815211516 2371.34269009977,1348.5466425949462 2377.016335835525,1348.5466425949462 C2380.626837667369,1348.5466425949462 2386.300483403124,1346.9745902459795 2389.910985234968,1345.1405291721844 C2393.521487066812,1343.3064680983898 2405.1266715263105,1338.8523197763166 2415.700284033854,1335.4462063535548 C2426.2738965413973,1332.040092930793 2436.3317230729626,1328.3719707832033 2437.621188012907,1327.3239358838919 C2439.1685459408404,1326.2759009845809 2444.0685127126285,1324.7038486356137 2448.710586496428,1323.6558137363027 C2453.3526602802276,1322.6077788369912 2460.315770955927,1320.2497003135404 2464.1841657757595,1318.153630514918 C2468.0525605955927,1316.0575607162955 2472.9525273673808,1314.4855083673283 2475.2735642592806,1314.4855083673283 C2477.5946011511805,1314.4855083673283 2483.0103538989465,1312.6514472935337 2486.878748718779,1310.5553774949108 C2491.005036526601,1308.4593076962883 2496.936575250345,1306.6252466224933 2499.7733981182223,1306.6252466224933 C2502.868113974089,1306.6252466224933 2508.7996526978322,1304.7911855486986 2512.6680475176654,1302.6951157500757 C2516.7943353254873,1300.5990459514533 2522.7258740492307,1298.7649848776587 2525.820589905097,1298.7649848776587 C2528.9153057609637,1298.7649848776587 2532.01002161683,1297.7169499783472 2533.041593568785,1296.4069063542079 C2533.815272532752,1294.8348540052411 2539.7468112564957,1293.000792931446 2545.9362429682283,1291.952758032135 C2552.3835676679496,1291.1667318576515 2558.0572134037047,1289.3326707838564 2558.8308923676714,1288.2846358845454 C2559.604571331638,1286.974592260406 2566.0518960313593,1285.402539911439 2573.2728996950473,1284.354505012128 C2580.4939033587357,1283.3064701128164 2589.5201579383456,1280.948391589366 2593.1306597701896,1278.8523217907432 C2596.9990545900228,1276.7562519921207 2603.1884863017553,1275.1841996431535 2607.056881121588,1275.1841996431535 C2610.925275941421,1275.1841996431535 2614.535777773265,1274.1361647438425 2615.309456737232,1272.8261211197032 C2616.341028689187,1271.5160774955639 2623.0462463768977,1269.6820164217693 2630.5251430285743,1268.6339815224578 C2637.7461466922623,1267.5859466231464 2645.2250433439394,1265.7518855493518 2646.5145082838835,1264.4418419252124 C2648.061866211817,1263.3938070259014 2655.540762863494,1261.0357285024506 2663.2775525031598,1259.7256848783118 C2677.977452818525,1257.1055976300331 2691.645781181934,1253.6994842072713 2713.3087921729984,1247.4112748114035 C2720.014009860709,1245.315205012781 2728.5244784643414,1243.7431526638138 2732.1349802961854,1243.7431526638138 C2735.4875891400407,1243.7431526638138 2740.6454488998174,1242.433109039675 2743.4822717676952,1241.1230654155356 C2746.061201647584,1239.5510130665684 2755.6032422031717,1237.192934543118 2764.6294967827816,1235.8828909189792 C2785.2609358218906,1232.7387862210448 2806.9239468129545,1228.284637898972 2816.7238803565315,1225.1405332010381 C2821.108061152342,1223.8304895768988 2831.939566647874,1221.9964285031037 2841.223714215473,1220.9483936037927 C2850.507861783072,1220.1623674293091 2859.2762233746935,1218.328306355514 2860.8235813026263,1217.280271456203 C2862.3709392305595,1215.9702278320638 2872.9445517381027,1214.1361667582692 2884.033950221624,1213.3501405837856 C2895.123348705145,1212.302105684474 2905.696961212688,1210.7300533355074 2906.9864261526322,1209.682018436196 C2908.5337840805655,1208.3719748120566 2917.8179316481646,1206.7999224630898 2927.617865191741,1205.7518875637784 C2937.675691723307,1204.703852664467 2949.2808761828055,1202.8697915906723 2953.922949966605,1201.559747966533 C2961.9176325942594,1198.9396607182548 2977.1333188856024,1197.1055996444602 3034.643455207118,1191.3414076982476 C3049.601248510472,1189.7693553492809 3066.8800787057257,1187.41127682583 3073.327403405447,1185.8392244768634 C3095.764093360478,1180.8610587051344 3224.4526943669193,1171.1667358865047 3315.231026138998,1167.2366050140872 C3366.0359447728033,1165.1405352154648 3387.9568487518563,1163.5684828664976 3387.1831697878897,1161.472413067875 C3385.8937048479456,1158.0662996451133 3345.1466127457056,1157.8042909202854 3253.852494997649,1160.4243781685636 z" stroke-linecap="round" stroke-width="0" id="svg_11" fill="#ffffff" fill-opacity="1"/>
</g>
</g>
</g></g></svg>