<?xml version="1.0" encoding="UTF-8" standalone="no" ?>
<!DOCTYPE svg PUBLIC "-//W3C//DTD SVG 1.1//EN" "http://www.w3.org/Graphics/SVG/1.1/DTD/svg11.dtd">
<svg xmlns="http://www.w3.org/2000/svg" xmlns:xlink="http://www.w3.org/1999/xlink" version="1.1" width="3600pt" height="1374pt" viewBox="0 0 3599.99988 1373.99996" xml:space="preserve">
<desc>Created with Fabric.js 5.3.0</desc>
<defs>
</defs>
<g transform="matrix(1.9341974104 0 0 1.9650654367 4643.8956472874 1801.8218022874)" id="507Z5iuZZBu8TPPQ3wWks"  >
<g style=""   >
		<g transform="matrix(0.1333333333 0 0 -0.1333333333 -1940.6602110802 -729.8666666667)" id="KtXoBtVn1t4Okslw9OCyA"  >
<path style="stroke: none; stroke-width: 1; stroke-dasharray: none; stroke-linecap: butt; stroke-dashoffset: 0; stroke-linejoin: miter; stroke-miterlimit: 4; fill: rgb(218,36,29); fill-rule: nonzero; opacity: 1;"  transform=" translate(-3445.0484168983, -12344)" d="M 2527 13720 C 2524 13709 2510 13698 2494 13694 C 2407 13673 2322 13579 2301 13482 C 2262 13299 2330 13124 2467 13055 C 2488 13044 2508 13031 2512 13025 C 2516 13019 2630 13014 2804 13012 C 3013 13009 3092 13005 3099 12996 C 3106 12988 3110 12672 3112 12079 C 3114 11444 3118 11169 3126 11155 C 3132 11144 3145 11118 3155 11097 C 3181 11043 3210 11015 3276 10980 C 3329 10951 3340 10949 3439 10948 C 3516 10948 3553 10953 3575 10964 C 3592 10973 3610 10980 3616 10980 C 3636 10980 3724 11066 3741 11101 C 3793 11209 3790 11146 3793 12122 C 3794 12620 3799 13032 3803 13037 C 3808 13041 3932 13046 4078 13048 C 4288 13050 4352 13054 4377 13065 C 4394 13073 4413 13080 4419 13080 C 4425 13080 4430 13085 4430 13090 C 4430 13096 4437 13100 4446 13100 C 4484 13100 4580 13227 4580 13277 C 4580 13289 4585 13302 4590 13305 C 4596 13308 4600 13347 4600 13390 C 4600 13433 4596 13472 4590 13475 C 4585 13478 4580 13491 4580 13503 C 4579 13566 4461 13680 4380 13696 C 4364 13700 4348 13711 4345 13721 C 4339 13739 4311 13740 3435 13740 C 2548 13740 2532 13740 2527 13720 z" stroke-linecap="round" />
</g>
		<g transform="matrix(0.1333333333 0 0 -0.1333333333 -1612.4791830769 -728.3507348706)" id="-lZseVPOqSpwwWKUY2dnc"  >
<path style="stroke: none; stroke-width: 1; stroke-dasharray: none; stroke-linecap: butt; stroke-dashoffset: 0; stroke-linejoin: miter; stroke-miterlimit: 4; fill: rgb(218,36,29); fill-rule: nonzero; opacity: 1;"  transform=" translate(-5906.406126923, -12332.6305115297)" d="M 5735 13694 C 5618 13681 5523 13661 5477 13642 C 5461 13635 5442 13630 5434 13630 C 5426 13630 5412 13626 5402 13620 C 5371 13603 5291 13570 5281 13570 C 5275 13570 5270 13566 5270 13561 C 5270 13556 5257 13549 5240 13545 C 5224 13541 5210 13535 5210 13530 C 5210 13525 5201 13518 5189 13515 C 5170 13509 5041 13425 5030 13411 C 5027 13408 4996 13380 4960 13350 C 4924 13320 4887 13286 4878 13275 C 4803 13188 4774 13151 4751 13116 C 4737 13093 4723 13073 4720 13070 C 4703 13055 4646 12947 4605 12855 C 4585 12809 4550 12702 4550 12685 C 4550 12677 4546 12662 4541 12652 C 4505 12585 4493 12243 4523 12095 C 4543 11992 4559 11933 4576 11893 C 4584 11876 4590 11857 4590 11851 C 4590 11845 4594 11832 4599 11822 C 4604 11813 4626 11769 4647 11725 C 4668 11681 4688 11643 4691 11640 C 4694 11637 4709 11615 4723 11590 C 4737 11565 4757 11536 4767 11524 C 4777 11513 4810 11475 4840 11440 C 4909 11359 4914 11354 4975 11305 C 5003 11283 5031 11260 5037 11253 C 5060 11232 5188 11150 5198 11150 C 5204 11150 5210 11146 5212 11142 C 5216 11132 5338 11070 5354 11070 C 5360 11070 5376 11064 5390 11057 C 5421 11041 5504 11014 5550 11005 C 5569 11002 5594 10995 5605 10990 C 5626 10981 5848 10958 5915 10958 C 5998 10959 6187 10981 6240 10995 C 6327 11020 6392 11041 6427 11056 C 6444 11064 6462 11070 6467 11070 C 6485 11070 6652 11161 6727 11212 C 6871 11311 7061 11517 7136 11655 C 7149 11680 7171 11720 7184 11745 C 7198 11770 7211 11803 7215 11820 C 7219 11836 7226 11852 7231 11855 C 7236 11859 7240 11869 7240 11878 C 7240 11887 7246 11906 7253 11920 C 7261 11935 7270 11968 7273 11994 C 7277 12021 7285 12049 7290 12055 C 7305 12073 7313 12410 7301 12515 C 7289 12628 7272 12707 7254 12742 C 7246 12756 7240 12775 7240 12784 C 7240 12793 7236 12808 7230 12818 C 7218 12841 7180 12928 7180 12934 C 7180 12940 7089 13093 7080 13100 C 7077 13103 7062 13125 7046 13149 C 6997 13224 6814 13397 6716 13460 C 6666 13493 6620 13523 6615 13527 C 6597 13540 6519 13577 6425 13615 C 6343 13649 6206 13680 6075 13695 C 5931 13712 5880 13711 5735 13694 z M 6126 12999 C 6164 12987 6199 12974 6204 12969 C 6210 12964 6220 12960 6228 12960 C 6259 12960 6382 12874 6452 12804 C 6591 12665 6669 12461 6654 12277 C 6651 12235 6644 12197 6639 12194 C 6634 12191 6630 12177 6630 12162 C 6629 12147 6621 12117 6610 12095 C 6599 12073 6591 12052 6590 12048 C 6589 12021 6513 11921 6436 11845 C 6368 11778 6325 11745 6269 11718 C 6228 11697 6188 11680 6179 11680 C 6171 11680 6159 11675 6153 11669 C 6137 11653 6023 11636 5925 11636 C 5827 11636 5713 11653 5697 11669 C 5691 11675 5678 11680 5668 11680 C 5642 11680 5529 11742 5455 11798 C 5383 11851 5309 11946 5260 12046 C 5242 12084 5222 12124 5216 12135 C 5210 12146 5204 12223 5202 12307 C 5198 12441 5200 12465 5219 12519 C 5239 12576 5250 12601 5272 12640 C 5276 12648 5286 12666 5293 12680 C 5324 12743 5446 12863 5527 12912 C 5602 12956 5676 12990 5699 12990 C 5708 12990 5720 12994 5726 12999 C 5741 13014 5776 13017 5921 13019 C 6034 13020 6068 13016 6126 12999 z" stroke-linecap="round" />
</g>
		<g transform="matrix(0.1333333333 0 0 -0.1333333333 -1201.0334437928 -723.8585834)" id="JTCwZjqu_4nhcdXpkaFom"  >
<path style="stroke: none; stroke-width: 1; stroke-dasharray: none; stroke-linecap: butt; stroke-dashoffset: 0; stroke-linejoin: miter; stroke-miterlimit: 4; fill: rgb(218,36,29); fill-rule: nonzero; opacity: 1;"  transform=" translate(-8992.2491715538, -12298.9393755003)" d="M 9600 13698 C 9564 13693 9515 13679 9490 13668 C 9423 13635 9344 13556 9315 13491 C 9301 13460 9285 13427 9280 13418 C 9274 13408 9270 13392 9270 13381 C 9270 13371 9263 13338 9254 13309 C 9221 13192 9210 13154 9204 13120 C 9201 13101 9195 13081 9191 13075 C 9188 13070 9180 13043 9174 13015 C 9167 12988 9155 12938 9145 12905 C 9136 12872 9124 12823 9119 12795 C 9113 12768 9105 12741 9100 12735 C 9096 12730 9090 12705 9086 12681 C 9082 12657 9076 12632 9072 12626 C 9066 12616 9055 12576 9030 12463 C 9019 12414 8993 12370 8975 12370 C 8962 12370 8950 12400 8950 12436 C 8950 12448 8943 12471 8935 12486 C 8927 12502 8920 12529 8920 12547 C 8920 12564 8916 12581 8911 12585 C 8905 12588 8898 12611 8894 12637 C 8890 12662 8881 12695 8874 12709 C 8866 12723 8860 12747 8860 12761 C 8860 12776 8853 12801 8845 12816 C 8837 12832 8830 12859 8830 12876 C 8830 12892 8826 12910 8821 12916 C 8816 12921 8807 12948 8801 12975 C 8796 13003 8784 13050 8775 13080 C 8754 13149 8732 13230 8716 13295 C 8709 13323 8698 13358 8692 13373 C 8685 13389 8680 13410 8680 13421 C 8680 13432 8676 13448 8671 13458 C 8665 13467 8651 13497 8638 13524 C 8616 13571 8530 13660 8506 13660 C 8500 13660 8482 13667 8465 13676 C 8420 13700 8239 13701 8185 13677 C 8073 13627 8016 13581 7961 13499 C 7938 13465 7920 13434 7920 13430 C 7920 13425 7915 13409 7908 13393 C 7897 13366 7881 13305 7860 13213 C 7855 13190 7847 13163 7841 13153 C 7836 13143 7827 13110 7821 13080 C 7793 12946 7788 12924 7780 12915 C 7776 12910 7770 12885 7766 12860 C 7762 12836 7755 12811 7751 12805 C 7746 12800 7740 12773 7736 12747 C 7733 12720 7727 12693 7723 12687 C 7715 12675 7696 12600 7682 12525 C 7677 12502 7670 12478 7666 12471 C 7661 12464 7651 12431 7644 12397 C 7636 12363 7623 12310 7616 12280 C 7608 12250 7597 12205 7591 12180 C 7585 12155 7576 12126 7571 12115 C 7566 12104 7559 12075 7555 12050 C 7552 12026 7545 12001 7541 11995 C 7536 11990 7530 11963 7526 11936 C 7523 11909 7516 11882 7511 11876 C 7506 11870 7499 11844 7496 11818 C 7492 11792 7485 11768 7481 11765 C 7476 11763 7470 11737 7466 11708 C 7462 11680 7456 11651 7452 11646 C 7445 11635 7430 11574 7409 11475 C 7403 11448 7394 11421 7389 11416 C 7384 11410 7380 11393 7380 11378 C 7380 11362 7373 11334 7365 11314 C 7356 11292 7354 11271 7359 11257 C 7363 11245 7370 11211 7374 11181 C 7389 11067 7510 10941 7630 10915 C 7646 10911 7662 10904 7665 10899 C 7669 10894 7707 10890 7750 10890 C 7793 10890 7831 10894 7835 10899 C 7838 10904 7854 10911 7871 10915 C 7955 10934 8088 11045 8127 11130 C 8133 11144 8141 11177 8144 11205 C 8148 11232 8155 11259 8160 11264 C 8166 11270 8170 11290 8170 11309 C 8171 11329 8177 11363 8185 11385 C 8193 11407 8200 11437 8200 11451 C 8200 11466 8206 11500 8214 11526 C 8234 11596 8250 11665 8261 11740 C 8267 11776 8276 11809 8281 11814 C 8286 11820 8290 11838 8290 11855 C 8290 11902 8330 12020 8345 12020 C 8353 12020 8362 12004 8366 11983 C 8370 11962 8379 11936 8386 11925 C 8394 11914 8400 11893 8400 11878 C 8400 11863 8404 11849 8409 11846 C 8414 11842 8421 11822 8425 11799 C 8429 11777 8438 11746 8446 11732 C 8454 11717 8460 11695 8460 11684 C 8460 11672 8467 11649 8475 11634 C 8483 11618 8490 11593 8490 11578 C 8490 11563 8494 11549 8499 11546 C 8504 11542 8511 11522 8515 11499 C 8519 11477 8528 11446 8536 11432 C 8544 11417 8550 11394 8550 11380 C 8551 11366 8557 11344 8565 11330 C 8573 11316 8579 11293 8580 11278 C 8580 11263 8584 11249 8589 11246 C 8594 11242 8601 11221 8605 11198 C 8620 11112 8711 10981 8784 10943 C 8856 10904 8915 10891 9012 10890 C 9066 10890 9112 10894 9115 10900 C 9118 10906 9128 10910 9136 10910 C 9169 10910 9258 10960 9302 11003 C 9360 11059 9397 11117 9406 11166 C 9409 11188 9416 11210 9420 11215 C 9424 11221 9431 11251 9434 11282 C 9438 11314 9445 11342 9449 11345 C 9454 11347 9460 11373 9464 11402 C 9468 11431 9475 11459 9479 11465 C 9484 11470 9490 11497 9494 11524 C 9497 11551 9504 11578 9509 11584 C 9513 11590 9520 11619 9524 11648 C 9528 11678 9535 11709 9539 11718 C 9544 11728 9553 11760 9559 11790 C 9584 11909 9590 11936 9599 11955 C 9604 11966 9611 11992 9615 12013 C 9618 12035 9627 12050 9635 12050 C 9652 12050 9679 11998 9687 11946 C 9690 11924 9699 11895 9707 11881 C 9714 11867 9720 11841 9720 11824 C 9720 11808 9724 11790 9729 11784 C 9735 11779 9743 11757 9749 11735 C 9776 11629 9783 11604 9791 11588 C 9796 11579 9803 11552 9806 11528 C 9810 11504 9816 11480 9821 11475 C 9825 11469 9832 11445 9836 11422 C 9840 11399 9846 11377 9851 11375 C 9855 11372 9862 11349 9866 11323 C 9870 11298 9879 11265 9886 11251 C 9894 11237 9900 11211 9900 11193 C 9900 11176 9904 11159 9909 11156 C 9913 11153 9920 11138 9923 11123 C 9939 11051 10085 10931 10178 10914 C 10198 10910 10221 10903 10227 10898 C 10240 10887 10267 10890 10360 10911 C 10516 10946 10612 11082 10627 11288 C 10630 11325 10627 11356 10621 11364 C 10615 11371 10607 11399 10604 11426 C 10600 11453 10594 11480 10589 11485 C 10585 11491 10578 11516 10574 11540 C 10570 11565 10564 11590 10560 11595 C 10555 11601 10547 11628 10541 11655 C 10525 11732 10504 11813 10497 11830 C 10493 11838 10486 11865 10480 11890 C 10457 11998 10444 12046 10437 12057 C 10433 12063 10427 12090 10424 12117 C 10420 12143 10414 12170 10409 12175 C 10405 12181 10398 12206 10394 12230 C 10390 12255 10384 12280 10380 12285 C 10375 12291 10367 12318 10361 12345 C 10342 12434 10324 12504 10312 12533 C 10305 12549 10300 12572 10300 12584 C 10300 12597 10293 12624 10285 12643 C 10277 12663 10270 12690 10270 12704 C 10270 12717 10263 12741 10255 12756 C 10247 12772 10240 12799 10240 12817 C 10240 12834 10236 12851 10231 12855 C 10226 12858 10218 12885 10215 12915 C 10211 12946 10204 12973 10199 12975 C 10195 12978 10188 13002 10184 13028 C 10181 13054 10174 13080 10170 13085 C 10165 13091 10159 13118 10155 13145 C 10151 13173 10144 13200 10140 13205 C 10135 13211 10129 13233 10125 13255 C 10122 13277 10115 13304 10110 13315 C 10105 13326 10096 13358 10091 13385 C 10086 13413 10075 13452 10067 13474 C 10050 13520 9970 13629 9953 13630 C 9947 13630 9935 13636 9928 13643 C 9904 13668 9846 13689 9773 13699 C 9693 13711 9691 13711 9600 13698 z" stroke-linecap="round" />
</g>
		<g transform="matrix(0.1333333333 0 0 -0.1333333333 -790.2267431776 -728.3507348706)" id="eejXu-OIkMwLqXCbr89P9"  >
<path style="stroke: none; stroke-width: 1; stroke-dasharray: none; stroke-linecap: butt; stroke-dashoffset: 0; stroke-linejoin: miter; stroke-miterlimit: 4; fill: rgb(218,36,29); fill-rule: nonzero; opacity: 1;"  transform=" translate(-12073.2994261678, -12332.6305115297)" d="M 11895 13694 C 11778 13681 11683 13661 11637 13642 C 11621 13635 11602 13630 11594 13630 C 11586 13630 11572 13626 11562 13620 C 11553 13615 11523 13601 11495 13589 C 11445 13568 11383 13538 11344 13517 C 11196 13433 10996 13246 10900 13100 C 10892 13088 10879 13072 10873 13064 C 10866 13057 10860 13048 10860 13044 C 10860 13040 10847 13015 10830 12989 C 10814 12962 10798 12929 10794 12915 C 10791 12901 10784 12890 10779 12890 C 10774 12890 10770 12882 10770 12873 C 10770 12863 10763 12842 10755 12826 C 10747 12811 10740 12793 10740 12788 C 10740 12782 10734 12764 10726 12747 C 10708 12703 10691 12622 10679 12515 C 10667 12413 10675 12073 10689 12056 C 10695 12050 10702 12021 10706 11992 C 10710 11963 10717 11937 10721 11934 C 10726 11931 10730 11921 10730 11912 C 10731 11903 10739 11877 10750 11855 C 10761 11833 10769 11809 10770 11803 C 10770 11796 10783 11767 10799 11738 C 10815 11709 10836 11669 10846 11650 C 10911 11529 11117 11301 11223 11232 C 11246 11217 11267 11203 11270 11200 C 11285 11182 11496 11070 11513 11070 C 11518 11070 11536 11064 11553 11056 C 11594 11038 11642 11022 11710 11003 C 11767 10987 11995 10959 12065 10958 C 12137 10958 12355 10981 12372 10990 C 12381 10995 12408 11003 12432 11006 C 12456 11010 12480 11016 12485 11020 C 12491 11024 12510 11031 12528 11035 C 12546 11039 12573 11048 12588 11056 C 12603 11064 12620 11070 12626 11070 C 12642 11070 12764 11132 12768 11142 C 12770 11146 12777 11150 12784 11150 C 12795 11150 12929 11239 12956 11264 C 12963 11270 12995 11298 13027 11325 C 13080 11370 13106 11397 13195 11505 C 13208 11522 13224 11540 13230 11547 C 13235 11554 13240 11561 13240 11564 C 13240 11567 13253 11588 13269 11612 C 13314 11680 13400 11854 13400 11880 C 13400 11885 13404 11898 13409 11908 C 13421 11931 13438 11998 13457 12095 C 13487 12247 13474 12579 13434 12667 C 13426 12684 13420 12709 13420 12723 C 13420 12737 13416 12752 13410 12755 C 13405 12758 13400 12771 13400 12782 C 13400 12793 13391 12821 13381 12844 C 13301 13016 13284 13043 13197 13154 C 13171 13188 13142 13226 13133 13240 C 13124 13254 13075 13301 13023 13345 C 12971 13389 12923 13430 12917 13435 C 12910 13441 12887 13457 12865 13470 C 12843 13483 12823 13497 12820 13501 C 12817 13504 12805 13510 12793 13514 C 12780 13518 12770 13525 12770 13530 C 12770 13535 12757 13541 12740 13545 C 12724 13549 12710 13556 12710 13561 C 12710 13566 12705 13570 12699 13570 C 12687 13570 12633 13592 12587 13616 C 12571 13624 12552 13630 12545 13630 C 12537 13630 12519 13635 12503 13642 C 12456 13662 12361 13681 12235 13695 C 12091 13712 12040 13711 11895 13694 z M 12291 12996 C 12379 12968 12409 12955 12475 12916 C 12535 12882 12698 12718 12722 12670 C 12755 12602 12780 12541 12780 12528 C 12780 12520 12786 12508 12793 12502 C 12801 12493 12805 12445 12805 12335 C 12805 12225 12801 12177 12793 12169 C 12786 12162 12780 12146 12780 12133 C 12780 12106 12740 12010 12728 12010 C 12724 12010 12720 12004 12720 11997 C 12720 11989 12712 11974 12703 11962 C 12693 11951 12678 11931 12670 11918 C 12651 11888 12572 11809 12542 11790 C 12529 11782 12509 11767 12498 11758 C 12486 11748 12471 11740 12464 11740 C 12457 11740 12450 11737 12448 11733 C 12444 11722 12356 11680 12338 11680 C 12330 11680 12320 11676 12314 11671 C 12298 11654 12178 11636 12085 11636 C 11996 11635 11865 11654 11845 11669 C 11840 11674 11824 11680 11810 11683 C 11758 11696 11624 11785 11558 11851 C 11497 11912 11420 12016 11420 12037 C 11420 12041 11413 12058 11405 12074 C 11396 12090 11385 12120 11380 12139 C 11375 12159 11366 12193 11361 12215 C 11347 12267 11348 12394 11361 12445 C 11367 12467 11376 12504 11381 12528 C 11387 12551 11396 12570 11401 12570 C 11406 12570 11410 12577 11410 12586 C 11410 12608 11451 12690 11462 12690 C 11466 12690 11470 12696 11470 12704 C 11470 12723 11597 12852 11655 12892 C 11720 12936 11800 12975 11875 12999 C 11922 13015 11965 13019 12076 13019 C 12198 13020 12227 13017 12291 12996 z" stroke-linecap="round" />
</g>
		<g transform="matrix(0.1333333333 0 0 -0.1333333333 -2214.9677071308 -721.5438945452)" id="fs-_6aRVJ84gXIQVZVjh9"  >
<path style="stroke: none; stroke-width: 1; stroke-dasharray: none; stroke-linecap: butt; stroke-dashoffset: 0; stroke-linejoin: miter; stroke-miterlimit: 4; fill: rgb(218,36,29); fill-rule: nonzero; opacity: 1;"  transform=" translate(-1387.7421965188, -12281.5792090893)" d="M 1345 13693 C 1318 13691 1291 13685 1285 13681 C 1280 13676 1262 13670 1246 13666 C 1205 13656 1115 13595 1081 13552 C 1065 13533 1041 13495 1028 13469 C 1016 13442 1002 13420 998 13420 C 993 13420 990 13414 990 13406 C 990 13398 970 13352 946 13303 C 867 13146 800 13002 800 12991 C 800 12985 796 12980 790 12980 C 785 12980 780 12974 780 12966 C 780 12954 675 12732 649 12690 C 644 12682 637 12668 634 12660 C 631 12652 609 12605 585 12555 C 561 12506 521 12420 495 12365 C 469 12310 419 12207 385 12135 C 351 12064 314 11986 304 11963 C 294 11939 283 11920 278 11920 C 274 11920 270 11914 270 11906 C 270 11898 250 11852 226 11803 C 177 11705 61 11465 36 11408 C 27 11388 20 11363 20 11352 C 20 11340 15 11328 10 11325 C -2 11317 -3 11143 9 11136 C 14 11133 21 11113 25 11093 C 32 11056 95 10950 110 10950 C 115 10950 125 10944 132 10937 C 165 10904 214 10890 296 10890 C 342 10890 381 10894 384 10899 C 387 10904 401 10911 414 10914 C 457 10925 561 10992 583 11024 C 614 11067 629 11092 639 11116 C 644 11127 666 11166 688 11202 C 710 11237 731 11276 734 11288 C 738 11300 746 11310 751 11310 C 756 11310 760 11316 760 11323 C 760 11331 774 11356 790 11378 L 820 11420 L 1385 11420 L 1950 11420 L 1975 11380 C 1989 11358 2000 11338 2000 11334 C 2000 11331 2015 11296 2034 11257 C 2084 11149 2100 11113 2100 11106 C 2100 11102 2104 11094 2110 11087 C 2115 11080 2132 11060 2146 11042 C 2176 11005 2268 10933 2320 10907 C 2358 10888 2441 10868 2480 10868 C 2582 10868 2686 10929 2749 11025 C 2774 11063 2775 11071 2775 11200 C 2775 11309 2772 11343 2757 11375 C 2747 11397 2731 11431 2723 11450 C 2714 11469 2701 11497 2693 11512 C 2686 11526 2680 11545 2680 11554 C 2680 11563 2676 11570 2670 11570 C 2665 11570 2660 11575 2660 11581 C 2660 11587 2644 11626 2625 11667 C 2606 11708 2590 11744 2590 11748 C 2590 11751 2577 11781 2561 11814 C 2546 11848 2525 11893 2516 11915 C 2506 11937 2492 11969 2485 11985 C 2472 12013 2425 12116 2395 12185 C 2387 12202 2367 12245 2351 12281 C 2334 12317 2320 12354 2320 12363 C 2320 12372 2316 12380 2310 12380 C 2305 12380 2300 12385 2300 12391 C 2300 12397 2284 12436 2265 12477 C 2246 12518 2230 12554 2230 12558 C 2230 12561 2217 12591 2201 12624 C 2186 12658 2165 12703 2156 12725 C 2146 12747 2132 12779 2125 12795 C 2092 12868 2051 12958 2036 12995 C 2011 13053 1989 13101 1973 13132 C 1966 13146 1960 13165 1960 13174 C 1960 13183 1956 13190 1950 13190 C 1945 13190 1940 13195 1940 13201 C 1940 13213 1889 13332 1853 13402 C 1846 13416 1840 13433 1840 13438 C 1840 13444 1824 13476 1803 13510 C 1769 13568 1669 13660 1640 13660 C 1634 13660 1617 13666 1602 13674 C 1572 13689 1426 13700 1345 13693 z M 1435 12610 C 1441 12591 1458 12548 1474 12515 C 1489 12482 1508 12439 1517 12420 C 1525 12401 1545 12356 1562 12320 C 1578 12284 1596 12246 1600 12235 C 1605 12224 1620 12189 1634 12158 C 1648 12126 1672 12074 1686 12043 C 1700 12011 1716 11974 1723 11960 C 1729 11946 1735 11932 1737 11928 C 1739 11925 1733 11914 1724 11906 C 1711 11892 1668 11890 1400 11890 C 1133 11890 1089 11892 1076 11906 C 1057 11925 1057 11925 1073 11958 C 1096 12003 1117 12051 1172 12180 C 1177 12194 1188 12219 1195 12235 C 1203 12252 1215 12281 1224 12300 C 1249 12360 1281 12433 1312 12500 C 1357 12600 1358 12603 1365 12628 C 1370 12646 1378 12650 1398 12648 C 1418 12646 1427 12637 1435 12610 z" stroke-linecap="round" />
</g>
		<g transform="matrix(0.1333333333 0 0 -0.1333333333 -902.7638136725 -477.5974842767)" id="7FU_zfeqCn0NQOEzfX1ZV"  >
<path style="stroke: none; stroke-width: 1; stroke-dasharray: none; stroke-linecap: butt; stroke-dashoffset: 0; stroke-linejoin: miter; stroke-miterlimit: 4; fill: rgb(218,36,29); fill-rule: nonzero; opacity: 1;"  transform=" translate(-11229.2713974561, -10451.9811320755)" d="M 11220 10529 C 11204 10511 11188 10484 11185 10468 C 11181 10453 11174 10438 11169 10435 C 11164 10431 11160 10411 11160 10389 L 11160 10350 L 11203 10350 C 11277 10351 11310 10402 11295 10496 C 11286 10560 11259 10571 11220 10529 z" stroke-linecap="round" />
</g>
		<g transform="matrix(0.1333333333 0 0 -0.1333333333 -785.8885209744 -398.2948308443)" id="RsuHCUnpaTIn5NNAIgiH8"  >
<path style="stroke: none; stroke-width: 1; stroke-dasharray: none; stroke-linecap: butt; stroke-dashoffset: 0; stroke-linejoin: miter; stroke-miterlimit: 4; fill: rgb(218,36,29); fill-rule: nonzero; opacity: 1;"  transform=" translate(-12105.8360926918, -9857.2112313319)" d="M 12263 10193 C 12226 10156 12112 10004 12015 9860 C 11870 9645 11846 9621 11784 9620 C 11748 9620 11737 9625 11711 9655 C 11688 9682 11680 9700 11680 9730 C 11680 9774 11697 9796 11739 9805 C 11769 9811 11875 9906 11902 9950 C 11910 9964 11924 9999 11933 10027 C 11947 10071 11948 10083 11938 10100 C 11923 10124 11890 10135 11855 10126 C 11826 10119 11685 9988 11665 9950 C 11658 9936 11643 9916 11632 9905 C 11614 9885 11582 9841 11509 9735 C 11464 9669 11410 9620 11383 9620 C 11354 9620 11303 9683 11291 9734 C 11286 9757 11277 9793 11271 9815 C 11265 9837 11260 9879 11260 9909 C 11260 10012 11189 10071 11149 10002 C 11140 9987 11096 9922 11051 9857 C 10976 9748 10960 9713 10976 9697 C 10982 9692 11036 9764 11078 9832 C 11087 9848 11100 9860 11106 9860 C 11121 9860 11150 9795 11157 9742 C 11160 9717 11169 9685 11177 9670 C 11184 9656 11190 9640 11190 9634 C 11190 9622 11236 9532 11252 9513 C 11280 9478 11379 9519 11445 9592 C 11469 9619 11504 9665 11525 9695 C 11576 9772 11595 9769 11603 9685 C 11607 9648 11617 9610 11626 9597 C 11650 9566 11709 9540 11757 9540 C 11792 9540 11806 9547 11852 9589 C 11881 9616 11939 9687 11980 9746 C 12070 9879 12144 9960 12176 9960 C 12208 9960 12213 9932 12200 9835 C 12194 9791 12185 9710 12180 9655 C 12174 9600 12168 9545 12165 9534 C 12160 9514 12175 9500 12200 9500 C 12214 9500 12250 9542 12250 9558 C 12250 9584 12349 9774 12379 9808 C 12416 9848 12468 9852 12501 9818 C 12520 9797 12570 9701 12570 9684 C 12570 9680 12578 9659 12587 9638 C 12621 9561 12689 9595 12789 9740 C 12842 9818 12856 9817 12864 9732 C 12870 9671 12875 9659 12904 9631 C 12940 9596 12993 9583 13053 9594 C 13093 9602 13157 9661 13206 9737 C 13264 9825 13246 9853 13185 9770 C 13127 9691 13096 9670 13039 9670 C 12993 9670 12989 9672 12964 9709 C 12936 9752 12933 9817 12960 9830 C 12968 9834 12992 9846 13013 9856 C 13097 9897 13164 9973 13195 10062 C 13215 10120 13214 10142 13190 10163 C 13163 10186 13137 10184 13092 10156 C 13048 10129 12928 10002 12885 9939 C 12869 9915 12850 9889 12843 9882 C 12836 9875 12811 9839 12786 9802 C 12721 9706 12686 9670 12655 9670 C 12624 9670 12610 9700 12610 9765 C 12610 9789 12606 9811 12601 9814 C 12596 9817 12589 9841 12585 9867 C 12577 9929 12545 9994 12515 10014 C 12493 10029 12488 10028 12456 10009 C 12421 9988 12331 9883 12317 9846 C 12311 9831 12307 9829 12298 9838 C 12284 9852 12284 9921 12298 9947 C 12303 9957 12311 10017 12314 10081 C 12320 10177 12319 10199 12306 10209 C 12294 10219 12287 10216 12263 10193 z M 13160 10074 C 13160 10019 13062 9909 12987 9881 C 12965 9872 12960 9873 12960 9886 C 12960 9900 12995 9952 13032 9994 C 13041 10004 13061 10032 13076 10056 C 13098 10091 13110 10100 13132 10100 C 13155 10100 13160 10096 13160 10074 z M 11898 10046 C 11906 10004 11845 9917 11766 9859 C 11712 9819 11663 9823 11703 9864 C 11709 9872 11722 9888 11730 9900 C 11744 9920 11768 9953 11795 9988 C 11853 10064 11891 10085 11898 10046 z" stroke-linecap="round" />
</g>
		<g transform="matrix(0.1333333333 0 0 -0.1333333333 -1177.1629937319 -393.2021133278)" id="sdiwQBvB5bSP1gDBI8sDW"  >
<path style="stroke: none; stroke-width: 1; stroke-dasharray: none; stroke-linecap: butt; stroke-dashoffset: 0; stroke-linejoin: miter; stroke-miterlimit: 4; fill: rgb(218,36,29); fill-rule: nonzero; opacity: 1;"  transform=" translate(-9171.2775470107, -9819.0158499583)" d="M 9394 10138 C 9344 10099 9304 10031 9293 9967 C 9290 9947 9283 9927 9279 9924 C 9274 9921 9270 9909 9270 9897 C 9270 9835 9092 9580 9049 9580 C 9039 9580 9028 9576 9025 9570 C 9016 9556 8978 9558 8937 9575 C 8886 9596 8859 9646 8858 9722 L 8857 9784 L 8930 9852 C 8969 9889 9016 9929 9034 9940 C 9075 9969 9130 10041 9130 10067 C 9130 10090 9106 10100 9050 10100 C 9021 10100 9006 10090 8945 10027 C 8907 9986 8855 9923 8830 9887 C 8787 9824 8763 9790 8740 9763 C 8735 9756 8730 9747 8730 9742 C 8730 9737 8717 9717 8700 9699 C 8670 9664 8661 9630 8682 9630 C 8689 9630 8704 9642 8717 9658 C 8736 9681 8741 9683 8750 9670 C 8755 9662 8760 9645 8760 9633 C 8760 9621 8765 9608 8770 9605 C 8776 9602 8780 9590 8780 9580 C 8780 9554 8820 9513 8853 9505 C 8868 9501 8883 9494 8886 9489 C 8889 9484 8916 9480 8946 9480 C 9023 9480 9089 9525 9150 9620 C 9174 9658 9200 9682 9213 9677 C 9220 9675 9230 9644 9235 9608 C 9241 9572 9251 9535 9259 9526 C 9302 9475 9424 9463 9488 9504 C 9608 9581 9672 9718 9672 9905 C 9672 10017 9654 10072 9606 10103 C 9576 10123 9509 10125 9492 10108 C 9482 10098 9477 10103 9468 10128 C 9453 10166 9434 10168 9394 10138 z M 9569 9993 C 9625 9939 9644 9792 9607 9701 C 9572 9614 9499 9550 9437 9550 C 9362 9550 9332 9619 9343 9764 C 9348 9829 9372 9900 9388 9900 C 9392 9900 9405 9917 9418 9938 C 9458 10003 9531 10029 9569 9993 z" stroke-linecap="round" />
</g>
		<g transform="matrix(0.1333333333 0 0 -0.1333333333 -1021.3925925926 -387.3333333333)" id="xBHfSp8UH2FkUy-WB1GSe"  >
<path style="stroke: none; stroke-width: 1; stroke-dasharray: none; stroke-linecap: butt; stroke-dashoffset: 0; stroke-linejoin: miter; stroke-miterlimit: 4; fill: rgb(218,36,29); fill-rule: nonzero; opacity: 1;"  transform=" translate(-10339.5555555556, -9775)" d="M 10014 10122 C 9997 10111 9901 9990 9850 9915 C 9825 9879 9800 9844 9795 9837 C 9789 9830 9773 9807 9760 9785 C 9747 9763 9733 9743 9730 9740 C 9716 9728 9690 9679 9690 9665 C 9690 9628 9708 9647 9794 9770 C 9807 9789 9839 9825 9865 9850 L 9911 9895 L 9932 9870 C 9946 9853 9950 9837 9946 9815 C 9943 9799 9936 9733 9930 9670 C 9924 9607 9915 9542 9910 9526 C 9904 9510 9900 9480 9900 9459 C 9900 9423 9902 9420 9929 9420 C 9952 9420 9963 9428 9979 9456 C 9991 9475 10000 9496 10000 9503 C 10000 9509 10020 9555 10045 9605 C 10089 9694 10150 9770 10177 9770 C 10206 9770 10278 9710 10280 9685 C 10280 9680 10289 9657 10300 9635 C 10311 9613 10320 9586 10320 9575 C 10321 9553 10353 9510 10369 9510 C 10382 9510 10450 9550 10450 9558 C 10450 9562 10463 9579 10478 9595 C 10493 9612 10516 9643 10529 9665 C 10568 9729 10591 9752 10607 9739 C 10614 9733 10620 9717 10620 9704 C 10620 9692 10624 9679 10629 9675 C 10634 9672 10641 9657 10645 9640 C 10654 9599 10686 9536 10706 9519 C 10721 9507 10727 9510 10764 9551 C 10816 9609 10884 9742 10924 9865 C 10933 9893 10944 9922 10947 9930 C 10951 9938 10959 9970 10966 10000 C 10973 10030 10982 10068 10986 10083 C 10992 10108 10990 10111 10974 10108 C 10964 10106 10952 10094 10948 10080 C 10945 10066 10936 10035 10929 10010 C 10887 9850 10820 9686 10791 9670 C 10763 9655 10729 9698 10723 9757 C 10720 9783 10712 9811 10706 9819 C 10700 9827 10695 9884 10695 9961 C 10695 10032 10693 10090 10691 10090 C 10689 10090 10670 10083 10649 10073 C 10607 10055 10605 10049 10591 9905 C 10583 9827 10561 9756 10540 9740 C 10536 9737 10517 9711 10496 9682 C 10454 9622 10430 9596 10408 9588 C 10374 9574 10364 9597 10338 9745 C 10332 9778 10321 9819 10314 9837 C 10306 9854 10300 9871 10300 9875 C 10300 9879 10291 9895 10279 9911 C 10249 9953 10212 9950 10163 9902 C 10109 9849 10083 9816 10075 9791 C 10071 9777 10062 9770 10052 9772 C 10038 9775 10035 9787 10037 9845 C 10039 9883 10044 9918 10050 9924 C 10055 9929 10060 9978 10060 10032 C 10060 10119 10058 10130 10043 10130 C 10033 10130 10020 10126 10014 10122 z" stroke-linecap="round" />
</g>
		<g transform="matrix(0.1333333333 0 0 -0.1333333333 -914.7657275935 -278.9818042181)" id="1uj6p5GxIqhcuH6jniVg6"  >
<path style="stroke: none; stroke-width: 1; stroke-dasharray: none; stroke-linecap: butt; stroke-dashoffset: 0; stroke-linejoin: miter; stroke-miterlimit: 4; fill: rgb(218,36,29); fill-rule: nonzero; opacity: 1;"  transform=" translate(-11139.2570430488, -8962.363531636)" d="M 12610 9318 C 12475 9314 12343 9306 12315 9300 C 12288 9295 12184 9286 12085 9280 C 11860 9268 11711 9254 11594 9235 C 11545 9227 11481 9220 11453 9220 C 11426 9220 11390 9216 11374 9210 C 11358 9205 11298 9196 11240 9191 C 11138 9181 11100 9176 10920 9145 C 10873 9137 10819 9130 10799 9130 C 10780 9130 10760 9126 10754 9120 C 10749 9115 10707 9106 10660 9101 C 10546 9087 10455 9071 10396 9054 C 10370 9046 10332 9040 10313 9040 C 10294 9040 10270 9035 10260 9030 C 10249 9024 10213 9017 10178 9014 C 10143 9010 10110 9003 10104 8999 C 10098 8994 10067 8986 10034 8981 C 9965 8970 9888 8953 9843 8939 C 9825 8933 9789 8925 9763 8920 C 9655 8899 9604 8887 9588 8879 C 9579 8874 9552 8867 9528 8864 C 9504 8860 9481 8854 9475 8850 C 9470 8845 9443 8839 9415 8835 C 9388 8831 9361 8824 9355 8820 C 9346 8813 9325 8807 9197 8777 C 9149 8766 9148 8766 9154 8730 C 9156 8711 9165 8674 9172 8648 C 9183 8607 9188 8600 9210 8600 C 9224 8600 9246 8606 9260 8613 C 9274 8620 9319 8637 9360 8650 C 9401 8663 9440 8677 9445 8681 C 9451 8685 9470 8691 9488 8695 C 9506 8699 9533 8708 9548 8716 C 9563 8724 9582 8730 9591 8730 C 9600 8730 9621 8737 9636 8745 C 9652 8753 9675 8760 9686 8760 C 9698 8760 9721 8767 9736 8775 C 9752 8783 9775 8790 9787 8790 C 9799 8790 9811 8794 9815 8799 C 9818 8805 9841 8812 9865 8816 C 9890 8819 9912 8826 9915 8830 C 9918 8835 9943 8841 9971 8845 C 9999 8849 10034 8858 10048 8866 C 10063 8874 10087 8880 10102 8880 C 10117 8880 10131 8884 10134 8889 C 10138 8894 10164 8901 10193 8905 C 10221 8909 10250 8916 10255 8921 C 10261 8925 10290 8934 10320 8939 C 10377 8949 10430 8962 10514 8986 C 10540 8994 10573 9000 10587 9000 C 10600 9000 10620 9005 10631 9010 C 10641 9016 10678 9025 10713 9030 C 10793 9042 10877 9059 10915 9071 C 10932 9076 10974 9083 11010 9087 C 11046 9090 11080 9097 11086 9101 C 11092 9106 11133 9113 11176 9116 C 11219 9120 11260 9126 11265 9130 C 11271 9135 11307 9141 11345 9145 C 11384 9149 11429 9156 11447 9161 C 11478 9171 11537 9178 11760 9200 C 11818 9206 11885 9215 11910 9221 C 11997 9240 12496 9277 12848 9292 C 13045 9300 13130 9306 13127 9314 C 13122 9327 12964 9328 12610 9318 z" stroke-linecap="round" />
</g>
</g>
</g>
</svg>